<svg width="70" height="70" viewBox="0 0 70 70" fill="none" xmlns="http://www.w3.org/2000/svg">
<path d="M33.8517 49.1284C34.6144 49.1284 35.2681 48.8428 35.8346 48.2275L52.4382 31.1328C52.9176 30.6494 53.1791 30.0342 53.1791 29.3091C53.1791 27.8589 52.046 26.6943 50.5861 26.6943C49.8671 26.6943 49.2352 27.002 48.734 27.4854L33.8517 42.8882L18.9695 27.4854C18.4683 27.002 17.8146 26.6943 17.1174 26.6943C15.6575 26.6943 14.5244 27.8589 14.5244 29.3091C14.5244 30.0342 14.7859 30.6494 15.2653 31.1328L31.8471 48.2275C32.4354 48.8428 33.0891 49.1284 33.8517 49.1284Z" fill="#BF2A61"/>
</svg>
