<svg width="164" height="70" viewBox="0 0 164 70" fill="none" xmlns="http://www.w3.org/2000/svg">
<path d="M163.135 51.7983C163.135 49.9271 162.511 48.5237 161.264 47.5881C161.264 44.1717 160.796 41.0602 159.86 38.2533C159.548 36.3963 155.976 34.0644 149.143 31.2576C142.311 28.465 138.426 26.9127 137.491 26.6009C135.322 25.3534 131.126 21.9299 124.903 16.3305C121.175 12.6023 117.446 9.49068 113.718 6.99575C107.197 2.33191 100.832 0 94.6233 0H8.84569C5.74119 0 3.72114 3.89125 2.78554 11.6738C2.17598 14.4664 1.71527 22.7096 1.4034 36.4034V41.5279L0.935602 44.3348L0 45.7381V56.455L2.339 59.2618C4.19603 61.1331 6.67679 62.0687 9.78129 62.0687H21.9016C22.2134 63.6138 23.149 65.1661 24.7084 66.7254C26.8773 68.9085 29.514 70 32.6185 70C35.1134 70 37.7572 68.9085 40.5498 66.7254C42.1092 65.1661 43.0377 63.6138 43.3354 62.0687H125.838C126.15 63.6138 127.086 65.1661 128.645 66.7254C131.438 68.9085 134.075 70 136.555 70C139.66 70 142.304 68.9085 144.487 66.7254C146.032 65.1661 146.96 63.6138 147.272 62.0687H150.079V61.9198L159.392 61.6009C161.887 60.9771 163.135 59.4178 163.135 56.9228V51.7983ZM157.075 38.7211C157.391 40.3046 157.625 41.9277 157.776 43.5905C157.932 45.1975 158.01 46.8419 158.01 48.5237V49.9271H158.925C159.548 50.239 159.86 50.8627 159.86 51.7983V56.9228C159.86 57.8584 159.392 58.3262 158.457 58.3262H158.01C157.387 58.6381 154.899 58.794 150.547 58.794H150.079V58.3262C150.079 54.9099 148.683 51.7983 145.89 48.9915C143.395 46.5107 140.284 45.2704 136.555 45.2704C132.827 45.2704 129.723 46.5107 127.242 48.9915C124.761 51.4864 123.521 54.598 123.521 58.3262V58.794H70.8293L78.9945 31.13C79.0189 31.0135 79.0331 30.9001 79.0371 30.7898H95.5377C97.7207 30.7898 98.8123 29.8613 98.8123 28.0043V13.9915C98.8123 11.8226 97.7207 10.7382 95.5377 10.7382H17.7126C15.5296 10.7382 14.438 11.8226 14.438 13.9915V23.794C14.438 25.3534 14.9058 26.289 15.8414 26.6009L22.8372 30.322L24.7084 30.7898H63.5358L55.4344 58.6877C55.4237 58.7233 55.4095 58.7588 55.3919 58.794H52.7126L52.6276 59.0917L52.6063 58.794H45.6744V58.3262C45.6744 58.0971 45.6673 57.8703 45.6531 57.6458C45.5633 55.3615 44.9821 53.3131 43.9095 51.5006C43.382 50.609 42.7299 49.7727 41.9532 48.9915C41.929 48.9674 41.9006 48.9391 41.8682 48.9064C41.2313 48.283 40.5509 47.7372 39.8269 47.2691C37.7539 45.9366 35.3511 45.2704 32.6185 45.2704C28.8902 45.2704 25.7857 46.5107 23.305 48.9915C20.5124 51.7983 19.116 54.9099 19.116 58.3262V58.794H10.2491C7.45646 58.794 5.43641 58.1703 4.18894 56.9228L2.78554 55.5194V46.6525L3.72114 45.7381L4.65674 41.9957L4.67801 41.1239L5.40097 18.2017L5.59235 12.1416C6.21608 8.39915 6.99575 5.75536 7.93135 4.2102L8.84569 2.80681H94.6233C100.209 3.11867 106.106 5.29465 112.315 9.33475L135.62 29.4077H136.087C138.894 30.0172 142.934 31.5695 148.208 34.0644C148.258 34.0851 148.307 34.1063 148.357 34.1282C153.551 36.2774 156.457 37.8084 157.075 38.7211ZM143.551 58.794C143.551 60.6652 142.927 62.3734 141.68 63.9186C140.135 65.1661 138.426 65.7898 136.555 65.7898C132.203 65.7898 130.027 63.4579 130.027 58.794C130.027 54.4421 132.203 52.2661 136.555 52.2661C141.219 52.2661 143.551 54.4421 143.551 58.794ZM39.1464 58.794C39.1464 63.4579 36.9704 65.7898 32.6185 65.7898C30.7614 65.7898 29.2092 65.1661 27.9617 63.9186C26.4166 62.3734 25.644 60.6652 25.644 58.794C25.644 54.4421 27.9688 52.2661 32.6185 52.2661C36.9704 52.2661 39.1464 54.4421 39.1464 58.794ZM109.529 37.7855V35.9356H102.533V37.7855H109.529ZM90.8809 34.0644V35.9356H98.3445V34.0644H90.8809ZM17.5425 35.4678V37.339H37.1264V35.4678H17.5425ZM130.027 28.9399C129.715 28.628 129.255 28.7839 128.645 29.4077C127.71 30.0172 127.242 31.7254 127.242 34.5322L127.71 35.4678L128.645 35.9356H131.899C134.379 35.9356 133.756 33.6037 130.027 28.9399ZM115.589 14.4593L113.718 13.9915H104.405V30.7898L111.4 33.5966C116.362 35.1559 120.246 35.9356 123.053 35.9356H125.838L125.371 34.5322C125.371 32.0373 125.994 29.8613 127.242 28.0043L129.56 27.0686C127.703 25.8212 125.378 23.8011 122.585 21.0085L115.589 14.4593Z" fill="#BF2A61"/>
<path d="M32.6181 65.7898C36.97 65.7898 39.146 63.4579 39.146 58.7941C39.146 54.4421 36.97 52.2661 32.6181 52.2661C27.9684 52.2661 25.6436 54.4421 25.6436 58.7941C25.6436 60.6653 26.4162 62.3734 27.9613 63.9186C29.2088 65.1661 30.7611 65.7898 32.6181 65.7898ZM35.4249 58.7941C35.4249 60.6653 34.4893 61.6009 32.6181 61.6009C30.7611 61.6009 29.8325 60.6653 29.8325 58.7941C29.8325 56.9229 30.7611 55.9873 32.6181 55.9873C34.4893 55.9873 35.4249 56.9229 35.4249 58.7941ZM141.679 63.9186C142.927 62.3734 143.551 60.6653 143.551 58.7941C143.551 54.4421 141.219 52.2661 136.555 52.2661C132.203 52.2661 130.027 54.4421 130.027 58.7941C130.027 63.4579 132.203 65.7898 136.555 65.7898C138.426 65.7898 140.134 65.1661 141.679 63.9186ZM136.555 61.6009C134.698 61.6009 133.769 60.6653 133.769 58.7941C133.769 56.9229 134.698 55.9873 136.555 55.9873C138.426 55.9873 139.362 56.9229 139.362 58.7941C139.362 60.6653 138.426 61.6009 136.555 61.6009ZM148.675 38.2534L148.356 34.1282C148.307 34.1063 148.257 34.0851 148.207 34.0644C142.934 31.5695 138.894 30.0172 136.087 29.4077H135.619L112.314 9.33477C106.105 5.29467 100.208 3.11869 94.6229 2.80682H8.8453L7.93096 4.21022C6.99536 5.75538 6.21569 8.39917 5.59196 12.1416L5.40058 18.2017H8.8453V36.8712C8.8453 38.927 7.45607 40.3446 4.67762 41.124L4.65636 41.9958L3.72076 45.7382L2.78516 46.6525V55.5195L4.18856 56.9229C5.43602 58.1703 7.45607 58.7941 10.2487 58.7941H19.1157V58.3263C19.1157 54.9099 20.512 51.7983 23.3046 48.9915C25.7854 46.5108 28.8899 45.2704 32.6181 45.2704C35.3507 45.2704 37.7535 45.9366 39.8265 47.2691L39.2523 38.2534C39.2098 37.6863 39.4012 37.1831 39.8265 36.7436C40.2234 36.3042 40.7054 36.0845 41.2724 36.0845H44.7384L41.8678 48.9065C41.9002 48.9391 41.9286 48.9674 41.9528 48.9915C42.7296 49.7727 43.3816 50.609 43.9091 51.5006L47.9917 33.4052L49.8842 57.6458H45.6527C45.6669 57.8703 45.674 58.0971 45.674 58.3263V58.7941H52.6059L50.6071 33.7455C50.5646 33.1359 50.7631 32.6114 51.2025 32.1719C51.5853 31.7325 52.0814 31.5128 52.691 31.5128H60.6649L52.7122 58.7941H55.3915C55.4091 58.7588 55.4233 58.7234 55.434 58.6877L63.5354 30.7898H24.708L22.8368 30.322L15.841 26.6009C14.9054 26.289 14.4376 25.3534 14.4376 23.7941V13.9915C14.4376 11.8226 15.5292 10.7382 17.7123 10.7382H95.5373C97.7203 10.7382 98.8119 11.8226 98.8119 13.9915V28.0043C98.8119 29.8613 97.7203 30.7898 95.5373 30.7898H79.0367C79.0327 30.9001 79.0185 31.0135 78.9941 31.13L70.8289 58.7941H123.52V58.3263C123.52 54.598 124.761 51.4865 127.241 48.9915C129.722 46.5108 132.827 45.2704 136.555 45.2704C140.283 45.2704 143.395 46.5108 145.89 48.9915C148.682 51.7983 150.079 54.9099 150.079 58.3263V58.7941H150.546C154.898 58.7941 157.386 58.6381 158.01 58.3263H158.456C159.392 58.3263 159.86 57.8585 159.86 56.9229V51.7983C159.86 50.8627 159.548 50.239 158.924 49.9271H158.01V48.5237C158.01 46.8419 157.932 45.1975 157.776 43.5905L148.675 38.2534ZM113.718 13.9915L115.589 14.4593L122.585 21.0085C125.377 23.8011 127.702 25.8212 129.559 27.0687L127.241 28.0043C125.994 29.8613 125.37 32.0373 125.37 34.5322L125.838 35.9356H123.052C120.246 35.9356 116.361 35.1559 111.4 33.5966L104.404 30.7898V13.9915H113.718ZM128.645 29.4077C129.254 28.7839 129.715 28.628 130.027 28.9399C133.755 33.6037 134.379 35.9356 131.898 35.9356H128.645L127.709 35.4678L127.241 34.5322C127.241 31.7254 127.709 30.0172 128.645 29.4077ZM17.5421 37.339V35.4678H37.126V37.339H17.5421ZM90.8805 35.9356V34.0644H98.3441V35.9356H90.8805ZM109.529 35.9356V37.7856H102.533V35.9356H109.529Z" fill="white"/>
<path d="M32.6182 61.6009C34.4894 61.6009 35.425 60.6653 35.425 58.7941C35.425 56.9229 34.4894 55.9873 32.6182 55.9873C30.7612 55.9873 29.8327 56.9229 29.8327 58.7941C29.8327 60.6653 30.7612 61.6009 32.6182 61.6009ZM133.769 58.7941C133.769 60.6653 134.698 61.6009 136.555 61.6009C138.426 61.6009 139.362 60.6653 139.362 58.7941C139.362 56.9229 138.426 55.9873 136.555 55.9873C134.698 55.9873 133.769 56.9229 133.769 58.7941ZM51.2026 32.1719C50.7632 32.6114 50.5647 33.1359 50.6073 33.7455L52.606 58.7941L52.6273 59.0918L52.7124 58.7941L60.665 31.5128H52.6911C52.0815 31.5128 51.5854 31.7325 51.2026 32.1719ZM8.84542 18.2017H5.4007L4.67773 41.124C7.45619 40.3446 8.84542 38.927 8.84542 36.8712V18.2017ZM157.776 43.5905C157.625 41.9277 157.391 40.3046 157.074 38.7212C156.457 37.8084 153.551 36.2774 148.356 34.1282L148.675 38.2534L157.776 43.5905Z" fill="#F2A649"/>
<path d="M45.6528 57.6458H49.8843L47.9918 33.4052L43.9092 51.5006C44.9818 53.313 45.563 55.3614 45.6528 57.6458Z" fill="#F23D5E"/>
<path d="M39.827 36.7436C39.4017 37.183 39.2103 37.6863 39.2529 38.2533L39.827 47.2691C40.551 47.7372 41.2314 48.2829 41.8683 48.9064L44.7389 36.0844H41.2729C40.7059 36.0844 40.2239 36.3041 39.827 36.7436Z" fill="#A6325C"/>
</svg>
