<svg width="125" height="70" viewBox="0 0 125 70" fill="none" xmlns="http://www.w3.org/2000/svg">
<path d="M12.4887 20.5943C11.4569 19.1679 9.993 18.5732 8.09704 18.8102C6.1464 18.8102 4.63678 19.5421 3.56818 21.006L0 21.2805L0.137226 29.3775L12.9004 28.6913V34.1809H6.31294V48.1792H23.056V49.4143H6.31294V51.8846H3.43095V55.7272H6.58743V59.9816H9.33219V63.9615H10.5673V65.6084H9.46942V67.118H13.3121V65.6084H12.4887V63.9615H13.7238V63.5498H14.5472C14.7302 65.1052 15.4622 66.569 16.743 67.9414C18.1154 69.3138 19.8538 70 21.9581 70C23.8794 70 25.572 69.3138 27.0359 67.9414C28.1338 66.8435 28.82 65.3797 29.0945 63.5498H31.0158C31.1073 65.1052 31.7935 66.569 33.0744 67.9414C34.5382 69.3138 36.3223 70 38.4267 70C40.348 70 42.0406 69.3138 43.5045 67.9414C44.6024 66.8435 45.2886 65.3797 45.563 63.5498H47.2099V62.7264C47.2099 61.7403 47.0727 60.8254 46.7982 59.9816H48.8567V62.3147C48.8567 63.2296 49.36 63.687 50.3664 63.687H60.2475C61.2539 63.687 61.7571 63.2296 61.7571 62.3147V61.6285H62.855C62.855 62.0859 63.038 62.4977 63.404 62.8636C63.8615 63.3211 64.3189 63.5498 64.7764 63.5498C65.4168 63.5498 65.9658 63.1838 66.4232 62.4519H68.4818C68.9393 63.1838 69.5797 63.5498 70.4031 63.5498H72.05C72.3245 65.3797 73.0564 66.8435 74.2458 67.9414C75.6182 69.3138 77.3108 70 79.3236 70C81.4279 70 83.1663 69.3138 84.5387 67.9414C85.6366 66.8435 86.3227 65.3797 86.5972 63.5498H88.793V63.9615H90.0282V65.6084H89.2048V67.118H92.9102V65.6084H92.0867V63.9615H93.3219V63.5498H94.4198V64.5105H97.439C97.656 65.5823 98.2507 66.7259 99.2231 67.9414C100.961 69.3138 102.746 70 104.575 70C106.497 70 108.189 69.3138 109.653 67.9414C110.401 67.1187 110.996 66.1123 111.437 64.9222H118.299L123.24 63.5498V62.4519C123.325 62.4519 123.416 62.4519 123.514 62.4519C124.063 62.4519 124.338 62.1774 124.338 61.6285C124.338 60.8965 124.063 60.5306 123.514 60.5306C123.416 60.5306 123.325 60.5306 123.24 60.5306V57.2369L122.416 55.0411H123.24V47.0812C123.24 45.7089 122.279 41.6832 120.358 35.0043L119.26 31.8478C118.711 29.469 115.692 28.2796 110.202 28.2796H100.458C99.7196 27.8844 98.9419 27.5184 98.1252 27.1817C99.0402 26.894 99.4976 26.2078 99.4976 25.1232V24.9859L120.358 24.5742V21.006H119.672V19.7709C120.312 19.3985 120.632 18.7123 120.632 17.7123L120.221 1.9299C120.221 0.557521 119.534 -0.0829146 118.162 0.00857748L113.221 0.145824V0.00857748L100.184 0.420296C98.8114 0.420296 98.1252 1.10649 98.1252 2.47887L98.5369 18.2612C98.5369 18.7384 98.5827 19.1043 98.6742 19.3592C98.3607 19.3774 97.9948 19.3774 97.5763 19.3592V16.3399L92.7729 16.4771V16.6144L12.4887 20.5943ZM21.2719 24.1625L21.6836 24.2997L31.8392 34.1809H14.41V24.7114C14.41 24.3455 14.593 24.1625 14.9589 24.1625H21.2719ZM26.2125 26.6328L22.7815 23.2018C22.324 22.7443 21.8209 22.5156 21.2719 22.5156H14.9589C13.747 22.5156 13.0608 23.0646 12.9004 24.1625V27.1817L1.64685 27.8679L1.50961 22.5156L92.7729 18.124L92.9102 23.4763L59.5613 24.8487L58.6007 23.4763L58.4634 23.2018H44.0534V25.8093L26.2125 26.6328ZM31.8392 32.2595V28.8286L44.0534 28.2796V34.1809H33.7606L31.8392 32.2595ZM4.66609 54.2176V53.1197H7.82257V50.9239H67.6584V53.1197H88.5186V54.2176H82.4801C81.528 53.9431 80.4758 53.8059 79.3236 53.8059C78.1714 53.8059 77.1192 53.9431 76.1671 54.2176H41.4459C40.5471 53.9431 39.5406 53.8059 38.4267 53.8059C37.2358 53.8059 36.1379 53.9431 35.1329 54.2176H24.9773C24.0785 53.9431 23.0721 53.8059 21.9581 53.8059C20.7673 53.8059 19.6693 53.9431 18.6644 54.2176H4.66609ZM7.82257 46.6695V35.6905H44.0534V45.1599H59.2868V46.6695H7.82257ZM57.5028 24.7114L58.6007 26.2211C60.5281 29.0459 61.7175 32.1566 62.1689 35.5532L62.3061 35.8277C62.3793 36.3417 62.4251 36.8448 62.4433 37.3373L62.5806 40.4938C62.5327 41.9498 62.3954 43.0935 62.1689 43.9248H45.563V24.7114H57.5028ZM44.7396 49.4143V48.1792H60.522V45.1599H63.404V44.7482C63.8314 43.2093 64.0602 41.5624 64.0902 39.8076L84.5387 31.7106L83.9897 30.3382L90.5771 27.7307L89.4792 51.8846H68.8935V49.4143H44.7396ZM99.3604 2.47887C99.3604 1.92991 99.6348 1.65543 100.184 1.65543L101.693 1.5182L102.105 18.9474L100.596 19.0847C100.047 19.0847 99.7721 18.8102 99.7721 18.2612L99.3604 2.47887ZM97.7135 21.4177V20.457L99.9093 20.3198C100.133 20.4113 100.362 20.457 100.596 20.457L118.162 20.0453V20.7315L108.006 21.006V21.1432L97.7135 21.4177ZM103.066 18.9474L102.654 1.5182L115.554 1.24371L115.966 18.673L103.066 18.9474ZM83.3035 28.4169L82.8918 27.3189L63.6785 34.867C63.2542 32.3721 62.4308 29.9476 61.2082 27.5934L74.2458 27.0445L75.2065 25.5349L92.6357 24.7114L83.3035 28.4169ZM82.0684 28.9658L82.8918 30.8871L64.0902 38.4352V38.1608C64.0566 37.5671 64.0108 36.9267 63.9529 36.2394L82.0684 28.9658ZM114.457 29.9265C114.604 29.9894 114.741 30.0351 114.868 30.0637L113.496 34.4553H114.731L114.457 35.0043V41.4545C114.457 42.2779 114.96 42.6896 115.966 42.6896H116.378L117.201 42.4151L117.339 43.9248L111.026 42.9641L108.693 51.0611C107.869 50.6952 107.046 50.4664 106.222 50.3749C105.689 50.2835 105.14 50.2377 104.575 50.2377H104.438H103.34C102.869 50.2377 102.411 50.2377 101.968 50.2377V50.3749C101.581 50.4286 101.215 50.52 100.87 50.6494C100.34 50.7631 99.8371 50.9003 99.3604 51.0611C99.2192 51.1805 99.082 51.272 98.9486 51.3356C98.3168 51.7223 97.7221 52.1798 97.1646 52.708H97.0273C96.9226 52.9106 96.7854 53.1394 96.6156 53.3942L96.4784 53.257L93.5964 51.3356V49.4143V33.083V29.652H103.203H110.888C111.372 29.6649 111.83 29.6649 112.261 29.652C112.857 29.7242 113.405 29.7699 113.908 29.7892C114.103 29.875 114.286 29.9208 114.457 29.9265ZM103.34 51.0611H104.575C106.954 51.0611 109.196 52.0675 111.3 54.0804C113.221 56.0017 114.182 58.106 114.182 60.3933V63.5498H113.359V61.6285C113.359 59.3412 112.535 57.3741 110.888 55.7272C109.333 53.9889 107.366 53.1197 104.987 53.1197H103.752C101.739 53.1197 100.092 53.8517 98.8114 55.3155C97.439 56.6879 96.7529 58.3805 96.7529 60.3933V63.687H95.5177V58.0603C95.716 56.3863 96.4937 54.8309 97.8508 53.3942C99.4976 51.8388 101.327 51.0611 103.34 51.0611ZM115.28 41.4545V35.0043C115.28 34.6383 115.509 34.4553 115.966 34.4553H116.378C116.744 34.4553 116.927 34.6383 116.927 35.0043V41.4545C116.927 41.8204 116.744 42.0034 116.378 42.0034H115.966C115.509 42.0034 115.28 41.8204 115.28 41.4545ZM116.378 1.24371H118.162C118.711 1.15222 118.985 1.38095 118.985 1.9299L119.397 17.7123C119.397 18.1072 119.26 18.3817 118.985 18.5357C118.753 18.5825 118.524 18.6283 118.299 18.673H116.79L116.378 1.24371ZM119.672 59.7071V60.9423H115.28V60.3933C115.28 60.1621 115.28 59.9334 115.28 59.7071H119.672ZM121.867 62.0402V62.4519L118.025 63.5498H115.28V62.0402H121.867ZM104.575 59.021C105.582 59.021 106.405 59.3869 107.046 60.1189C107.778 60.8508 108.144 61.72 108.144 62.7264C108.144 65.1052 106.954 66.2946 104.575 66.2946C102.197 66.2946 101.007 65.1052 101.007 62.7264C101.007 61.72 101.327 60.8508 101.968 60.1189C102.7 59.3869 103.569 59.021 104.575 59.021ZM91.9495 62.4519H90.1654V57.3741H91.9495V62.4519ZM82.8918 62.5891V62.8636C82.8221 65.1509 81.6327 66.2946 79.3236 66.2946C77.1035 66.2946 75.9599 65.1509 75.8927 62.8636V62.7264C75.8927 61.72 76.2586 60.8508 76.9906 60.1189L77.1278 59.9816C77.9241 59.3623 78.6103 59.042 79.1864 59.021H79.3236C79.9898 59.041 80.7217 59.3612 81.5194 59.9816H81.9311C82.2771 60.2933 82.5058 60.6592 82.6173 61.0795L82.8918 62.5891ZM40.4852 59.9816H40.7597C40.804 60.0259 40.8498 60.0717 40.897 60.1189C41.6289 60.8508 41.9948 61.72 41.9948 62.7264C41.9948 65.1052 40.8055 66.2946 38.4267 66.2946C36.0479 66.2946 34.8585 65.1052 34.8585 62.7264C34.8585 61.72 35.1787 60.8508 35.8191 60.1189C35.8663 60.0717 35.9121 60.0259 35.9564 59.9816H36.0936C36.8391 59.4019 37.5253 59.0817 38.1522 59.021H38.4267C39.0024 59.0417 39.6886 59.3619 40.4852 59.9816ZM21.8208 59.021H21.9581C22.5331 59.0413 23.2193 59.3615 24.0167 59.9816H24.2911C24.3415 60.0259 24.3873 60.0717 24.4284 60.1189C25.1603 60.8508 25.5263 61.72 25.5263 62.7264C25.5263 65.1052 24.3369 66.2946 21.9581 66.2946C19.5793 66.2946 18.3899 65.1052 18.3899 62.7264C18.3899 61.5137 18.6644 60.5988 19.2133 59.9816H19.625C20.4227 59.3612 21.1547 59.041 21.8208 59.021ZM12.2142 57.3741V62.4519H10.5673V57.3741H12.2142Z" fill="#BF2A61"/>
<path d="M12.2143 62.4519V57.3741H10.5675V62.4519H12.2143ZM21.9583 59.021H21.821C21.1548 59.041 20.4229 59.3612 19.6252 59.9816H19.2135C18.6645 60.5989 18.3901 61.5138 18.3901 62.7264C18.3901 65.1052 19.5795 66.2946 21.9583 66.2946C24.337 66.2946 25.5264 65.1052 25.5264 62.7264C25.5264 61.72 25.1605 60.8508 24.4285 60.1189C24.3874 60.0717 24.3417 60.026 24.2913 59.9816H24.0168C23.2195 59.3616 22.5333 59.0413 21.9583 59.021ZM21.9583 60.8051C23.2391 60.8051 23.8796 61.4455 23.8796 62.7264C23.8796 64.0988 23.2391 64.785 21.9583 64.785C20.5859 64.785 19.8997 64.0988 19.8997 62.7264C19.8997 61.4455 20.5859 60.8051 21.9583 60.8051ZM40.7599 59.9816H40.4854C39.6888 59.3619 39.0026 59.0417 38.4268 59.021H38.1524C37.5255 59.0817 36.8393 59.402 36.0938 59.9816H35.9565C35.9122 60.026 35.8665 60.0717 35.8193 60.1189C35.1788 60.8508 34.8586 61.72 34.8586 62.7264C34.8586 65.1052 36.048 66.2946 38.4268 66.2946C40.8056 66.2946 41.995 65.1052 41.995 62.7264C41.995 61.72 41.6291 60.8508 40.8971 60.1189C40.8499 60.0717 40.8042 60.026 40.7599 59.9816ZM36.231 62.7264C36.231 61.4455 36.963 60.8051 38.4268 60.8051C39.7077 60.8051 40.3481 61.4455 40.3481 62.7264C40.3481 64.0988 39.7077 64.785 38.4268 64.785C36.963 64.785 36.231 64.0988 36.231 62.7264ZM82.892 62.8636V62.5892L82.6175 61.0795C82.506 60.6593 82.2772 60.2933 81.9313 59.9816H81.5196C80.7219 59.3612 79.99 59.041 79.3238 59.021H79.1865C78.6104 59.0421 77.9242 59.3623 77.128 59.9816L76.9907 60.1189C76.2588 60.8508 75.8928 61.72 75.8928 62.7264V62.8636C75.96 65.1509 77.1037 66.2946 79.3238 66.2946C81.6329 66.2946 82.8223 65.1509 82.892 62.8636ZM77.4024 62.7264C77.4024 61.4455 78.0429 60.8051 79.3238 60.8051C80.6962 60.8051 81.3823 61.4455 81.3823 62.7264C81.3823 64.0988 80.6962 64.785 79.3238 64.785C78.0429 64.785 77.4024 64.0988 77.4024 62.7264ZM90.1656 62.4519H91.9497V57.3741H90.1656V62.4519ZM107.046 60.1189C106.405 59.3869 105.582 59.021 104.576 59.021C103.569 59.021 102.7 59.3869 101.968 60.1189C101.328 60.8508 101.007 61.72 101.007 62.7264C101.007 65.1052 102.197 66.2946 104.576 66.2946C106.954 66.2946 108.144 65.1052 108.144 62.7264C108.144 61.72 107.778 60.8508 107.046 60.1189ZM104.576 60.8051C105.856 60.8051 106.497 61.4455 106.497 62.7264C106.497 64.0988 105.856 64.785 104.576 64.785C103.295 64.785 102.654 64.0988 102.654 62.7264C102.654 61.4455 103.295 60.8051 104.576 60.8051ZM121.868 62.4519V62.0402H115.28V63.5498H118.025L121.868 62.4519ZM119.672 60.9423V59.7072H115.28C115.28 59.9334 115.28 60.1621 115.28 60.3934V60.9423H119.672ZM115.28 35.0043V41.4545C115.28 41.8205 115.509 42.0035 115.966 42.0035H116.378C116.744 42.0035 116.927 41.8205 116.927 41.4545V35.0043C116.927 34.6383 116.744 34.4554 116.378 34.4554H115.966C115.509 34.4554 115.28 34.6383 115.28 35.0043ZM104.576 51.0612H103.34C101.328 51.0612 99.4978 51.8388 97.8509 53.3942C96.4939 54.8309 95.7162 56.3863 95.5179 58.0603V63.6871H96.753V60.3934C96.753 58.3805 97.4392 56.6879 98.8116 55.3156C100.092 53.8517 101.739 53.1197 103.752 53.1197H104.987C107.366 53.1197 109.333 53.9889 110.889 55.7273C112.535 57.3741 113.359 59.3412 113.359 61.6285V63.5498H114.182V60.3934C114.182 58.1061 113.222 56.0017 111.3 54.0804C109.196 52.0676 106.954 51.0612 104.576 51.0612ZM102.929 30.7499C102.929 30.384 103.02 30.018 103.203 29.652H93.5965V33.083C93.688 32.9915 93.8253 32.9457 94.0082 32.9457H97.302L93.5965 49.4143V51.3356L96.4785 53.257L95.9296 52.8453C95.6551 52.4793 95.5636 52.0676 95.6551 51.6101L100.458 30.4755L101.968 50.2377C102.412 50.2377 102.869 50.2377 103.34 50.2377H104.438L102.929 30.7499ZM110.889 29.652C111.347 29.6785 111.805 29.7242 112.261 29.7893L111.026 34.4554H106.497V40.7683C106.497 41.5002 106.817 42.0035 107.458 42.2779L108.555 42.5524L107.046 47.7675H104.987V48.5909H106.771L106.222 50.375C107.046 50.4665 107.869 50.6952 108.693 51.0612L111.026 42.9641L117.339 43.9248L117.201 42.4152L116.378 42.6897H115.966C114.96 42.6897 114.457 42.2779 114.457 41.4545V35.0043L114.731 34.4554H113.496L114.868 30.0637C114.742 30.0351 114.604 29.9894 114.457 29.9265C114.287 29.9208 114.104 29.875 113.908 29.7893C113.406 29.77 112.857 29.7242 112.261 29.652C111.83 29.6649 111.372 29.6649 110.889 29.652ZM58.6008 26.2211L57.5029 24.7115H45.5632V43.9248H62.169C62.3956 43.0935 62.5328 41.9498 62.5807 40.4938L62.4435 37.3374C62.4253 36.8449 62.3795 36.3417 62.3062 35.8277L62.169 35.5533C61.7176 32.1566 60.5282 29.0459 58.6008 26.2211ZM46.3866 25.5349H57.0912C60.2019 29.7435 61.7573 34.4096 61.7573 39.5332L61.6201 42.8269H56.6795L46.3866 31.8478V25.5349ZM7.82273 35.6905V46.6695H59.287V45.1599H44.0536V35.6905H7.82273ZM24.2913 37.2001H25.252V45.1599H24.2913V37.2001ZM14.1357 37.2001H14.9591V45.1599H14.1357V37.2001ZM34.5842 37.2001H35.6821V45.1599H34.5842V37.2001ZM4.66625 53.1197V54.2176H18.6645C19.6695 53.9432 20.7674 53.8059 21.9583 53.8059C23.0722 53.8059 24.0786 53.9432 24.9775 54.2176H35.1331C36.1381 53.9432 37.236 53.8059 38.4268 53.8059C39.5408 53.8059 40.5472 53.9432 41.4461 54.2176H76.1673C77.1194 53.9432 78.1715 53.8059 79.3238 53.8059C80.476 53.8059 81.5281 53.9432 82.4802 54.2176H88.5187V53.1197H67.6585V50.9239H7.82273V53.1197H4.66625ZM22.7817 23.2018L26.2126 26.6328L44.0536 25.8094V23.2018H58.4636L58.6008 23.4763L59.5615 24.8487L92.9103 23.4763L92.7731 18.124L1.50977 22.5156L1.64701 27.8679L12.9005 27.1817V24.1625C13.061 23.0646 13.7472 22.5156 14.9591 22.5156H21.2721C21.821 22.5156 22.3242 22.7444 22.7817 23.2018ZM21.6838 24.2997L21.2721 24.1625H14.9591C14.5931 24.1625 14.4102 24.3455 14.4102 24.7115V34.1809H31.8394L21.6838 24.2997ZM18.5273 25.3976C20.0827 25.3976 20.8603 26.2211 20.8603 27.8679C20.8603 29.4233 20.0827 30.201 18.5273 30.201C16.8804 30.201 16.057 29.4233 16.057 27.8679C16.057 26.2211 16.8804 25.3976 18.5273 25.3976Z" fill="white"/>
<path d="M23.8796 62.7263C23.8796 61.4454 23.2392 60.805 21.9583 60.805C20.5859 60.805 19.8997 61.4454 19.8997 62.7263C19.8997 64.0987 20.5859 64.7849 21.9583 64.7849C23.2392 64.7849 23.8796 64.0987 23.8796 62.7263ZM38.4269 60.805C36.963 60.805 36.2311 61.4454 36.2311 62.7263C36.2311 64.0987 36.963 64.7849 38.4269 64.7849C39.7078 64.7849 40.3482 64.0987 40.3482 62.7263C40.3482 61.4454 39.7078 60.805 38.4269 60.805ZM79.3238 60.805C78.0429 60.805 77.4025 61.4454 77.4025 62.7263C77.4025 64.0987 78.0429 64.7849 79.3238 64.7849C80.6962 64.7849 81.3824 64.0987 81.3824 62.7263C81.3824 61.4454 80.6962 60.805 79.3238 60.805ZM106.497 62.7263C106.497 61.4454 105.857 60.805 104.576 60.805C103.295 60.805 102.654 61.4454 102.654 62.7263C102.654 64.0987 103.295 64.7849 104.576 64.7849C105.857 64.7849 106.497 64.0987 106.497 62.7263ZM112.261 29.7892C111.805 29.7242 111.347 29.6784 110.889 29.652H103.203C103.02 30.0179 102.929 30.3839 102.929 30.7499L104.438 50.2377H104.576C105.14 50.2377 105.689 50.2834 106.222 50.3749L106.771 48.5908H104.987V47.7674H107.046L108.556 42.5523L107.458 42.2779C106.817 42.0034 106.497 41.5002 106.497 40.7682V34.4553H111.026L112.261 29.7892ZM57.0912 25.5348H46.3867V31.8478L56.6796 42.8268H61.6201L61.7574 39.5331C61.7574 34.4096 60.202 29.7435 57.0912 25.5348ZM35.6821 37.2001H34.5842V45.1599H35.6821V37.2001ZM14.9592 37.2001H14.1357V45.1599H14.9592V37.2001ZM25.252 37.2001H24.2914V45.1599H25.252V37.2001ZM20.8604 27.8679C20.8604 26.221 20.0827 25.3976 18.5274 25.3976C16.8805 25.3976 16.0571 26.221 16.0571 27.8679C16.0571 29.4232 16.8805 30.2009 18.5274 30.2009C20.0827 30.2009 20.8604 29.4232 20.8604 27.8679Z" fill="#F2A649"/>
<path d="M99.3608 51.0612C99.8376 50.9004 100.341 50.7631 100.87 50.6495C101.215 50.5201 101.581 50.4286 101.968 50.375V50.2378L100.459 30.4755L95.6554 51.6101C95.5639 52.0676 95.6554 52.4793 95.9299 52.8453L96.4788 53.257L96.6161 53.3942C96.7858 53.1394 96.9231 52.9107 97.0278 52.708H97.165L97.4395 52.4336C97.9102 52.0058 98.4134 51.6398 98.9491 51.3356C99.0824 51.272 99.2197 51.1805 99.3608 51.0612Z" fill="#F23D5E"/>
<path d="M94.0084 32.9457C93.8254 32.9457 93.6882 32.9914 93.5967 33.0829V49.4142L97.3021 32.9457H94.0084Z" fill="#A6325C"/>
</svg>
