<svg width="124" height="70" viewBox="0 0 124 70" fill="none" xmlns="http://www.w3.org/2000/svg">
<path d="M9.42919 61.5297V58.653V57.2146H7.35156V62.9681H9.42919V61.5297ZM32.4429 57.5343C30.5251 57.5343 29.5662 58.4932 29.5662 60.411C29.5662 62.1157 30.5251 62.9681 32.4429 62.9681C34.2542 62.9681 35.1598 62.1157 35.1598 60.411C35.1598 58.4932 34.2542 57.5343 32.4429 57.5343ZM18.5388 5.11418C17.793 5.85999 17.4733 6.71235 17.5799 7.67126L20.7762 46.347H20.936L33.242 4.15527H20.7762C19.8173 4.15527 19.0715 4.47491 18.5388 5.11418ZM97.968 57.5343C96.1567 57.5343 95.2511 58.4932 95.2511 60.411C95.2511 62.1157 96.1567 62.9681 97.968 62.9681C99.6727 62.9681 100.525 62.1157 100.525 60.411C100.525 58.4932 99.6727 57.5343 97.968 57.5343ZM121.781 39.7945H120.342V46.0274H121.781V39.7945ZM111.712 22.6941L111.872 21.7352H100.525V30.6849C100.525 31.7504 101.005 32.2831 101.963 32.2831L115.388 34.6804L115.068 32.6028L114.269 32.9224H113.63C112.352 32.9224 111.712 32.3364 111.712 31.1644V22.6941Z" fill="#F2A649"/>
<path d="M105.479 13.4247H101.164C97.2222 11.5069 93.3333 10.4947 89.4977 10.3881C88.1126 10.3881 87.4201 11.0274 87.4201 12.3059L85.5023 49.3836C85.3957 49.4901 85.3425 49.5966 85.3425 49.7032H74.4749V48.2648H82.9452V0.639272H60.7306C60.3044 0.213092 59.7184 0 58.9726 0H40.9132C40.1674 0 39.5282 0.213092 38.9954 0.639272H0V13.9041C0 14.1172 0 14.3303 0 14.5434V48.2648H16.621V49.7032H11.1872V56.4155H11.9863L9.42922 58.653V61.5297L13.7443 58.653H20.137C20.0304 59.1857 19.9772 59.7717 19.9772 60.411V61.21H22.2146C22.6408 63.6606 23.5997 65.6317 25.0913 67.1233C27.1157 69.0411 29.5662 70 32.4429 70C35.2131 70 37.5571 69.0411 39.4749 67.1233C41.0731 65.6317 42.032 63.6606 42.3516 61.21H44.7489V60.411C44.7489 58.9193 44.589 57.5875 44.2694 56.4155H47.1461V59.4521C47.1461 60.8371 47.7854 61.5297 49.0639 61.5297H62.8082C64.1933 61.5297 64.8858 60.8371 64.8858 59.4521V58.653H66.3242C66.3242 60.3577 67.1233 61.21 68.7215 61.21C69.8934 61.21 70.7458 60.7306 71.2785 59.7717H74.3151C74.8478 60.7306 75.5936 61.21 76.5525 61.21C78.3638 61.21 79.2694 60.3577 79.2694 58.653H80.0685V61.21H83.9041V62.968H88.2192C88.5388 64.2466 89.3379 65.6317 90.6164 67.1233C92.9604 69.0411 95.411 70 97.968 70C100.632 70 102.922 69.0411 104.84 67.1233C106.225 65.8447 107.237 64.1933 107.877 62.1689L108.676 62.8082V62.968H108.836L108.995 63.1278H116.826L123.539 61.21V52.5799L122.74 49.7032H123.539V38.8356C123.539 36.172 122.314 30.7915 119.863 22.6941L118.425 18.379C117.359 15.0761 113.044 13.4247 105.479 13.4247ZM116.986 19.9772H115.708L118.904 35.4795L121.461 36.1187C121.674 37.2907 121.781 38.1964 121.781 38.8356V39.7945V46.0274V48.105H120.183L121.781 52.5799H118.904V54.9772H112.352C111.925 52.1005 110.54 49.5967 108.196 47.4658C105.213 44.589 101.804 43.1507 97.968 43.1507H95.8904C94.2922 43.1507 92.8006 43.4703 91.4155 44.1096V15.1826H105.479C112.298 15.1826 116.027 16.4079 116.667 18.8584L116.986 19.9772ZM98.4475 47.1461H96.6895C94.239 47.1461 92.0015 48.105 89.9772 50.0228C88.0594 51.9406 87.1004 54.2313 87.1004 56.895V61.5297H85.3425V54.3379C85.5555 51.8874 86.621 49.5967 88.5388 47.4658C90.6697 45.3349 93.1202 44.2694 95.8904 44.2694H97.968C101.271 44.2694 104.361 45.6012 107.237 48.2648C110.008 50.9285 111.393 53.8052 111.393 56.895V61.21H110.114V58.653C110.114 55.5632 108.942 52.8995 106.598 50.6621C104.467 48.3181 101.75 47.1461 98.4475 47.1461ZM121.781 59.1324V59.7717L116.667 61.21H112.511V59.1324H121.781ZM118.904 56.0959V58.0137H112.511V56.895C112.511 56.5753 112.511 56.309 112.511 56.0959H118.904ZM102.922 60.411C102.922 61.6895 102.443 62.7017 101.484 63.4475C100.419 64.4064 99.2466 64.8858 97.968 64.8858C94.6651 64.8858 93.0137 63.3942 93.0137 60.411C93.0137 57.1081 94.6651 55.4566 97.968 55.4566C101.271 55.4566 102.922 57.1081 102.922 60.411ZM61.5297 3.51598C61.6362 3.19635 61.6895 2.87672 61.6895 2.55708H81.0274V46.347H48.9041L61.5297 3.51598ZM2.07762 11.5068V2.55708H37.8767L25.0913 46.347H20.9361H20.7763H2.07762V40.274V11.5068ZM59.2922 48.2648V49.7032H46.5068C46.8265 49.5966 47.1461 49.3836 47.4657 49.0639C47.8919 48.8508 48.2116 48.5845 48.4247 48.2648H59.2922ZM35.6393 56.4155C36.5982 57.2679 37.0776 58.5997 37.0776 60.411C37.0776 63.3942 35.5327 64.8858 32.4429 64.8858C29.14 64.8858 27.4886 63.3942 27.4886 60.411C27.4886 58.5997 28.0213 57.2679 29.0868 56.4155H29.2466C30.0989 55.8828 31.0578 55.5632 32.1233 55.4566H32.9224C33.8813 55.5632 34.6804 55.8828 35.3196 56.4155H35.6393ZM100.205 40.9132H104.361V39.7945H100.205V40.9132ZM113.63 21.7352C113.097 21.7352 112.831 22.0548 112.831 22.6941V31.1644C112.831 31.8036 113.097 32.1233 113.63 32.1233H114.269L115.068 31.1644V22.6941C115.068 22.0548 114.802 21.7352 114.269 21.7352H113.63Z" fill="#BF2A61"/>
<path d="M37.0781 60.411C37.0781 58.5997 36.5987 57.2679 35.6398 56.4155H35.3201C34.6809 55.8828 33.8818 55.5632 32.9229 55.4566H32.1238C31.0583 55.5632 30.0994 55.8828 29.2471 56.4155H29.0873C28.0218 57.2679 27.4891 58.5997 27.4891 60.411C27.4891 63.3942 29.1405 64.8859 32.4434 64.8859C35.5332 64.8859 37.0781 63.3942 37.0781 60.411ZM29.5667 60.411C29.5667 58.4932 30.5256 57.5343 32.4434 57.5343C34.2547 57.5343 35.1603 58.4932 35.1603 60.411C35.1603 62.1157 34.2547 62.9681 32.4434 62.9681C30.5256 62.9681 29.5667 62.1157 29.5667 60.411ZM2.07812 2.5571V11.5069C2.39776 11.2938 2.77067 11.1872 3.19685 11.1872H8.47082L2.07812 40.274V46.347H20.7768L17.5804 7.67125C17.4739 6.71235 17.7935 5.85999 18.5393 5.11417C19.072 4.4749 19.8178 4.15527 20.7768 4.15527H33.2425L20.9366 46.347H25.0918L37.8772 2.5571H2.07812ZM8.47082 44.7489C7.90527 44.7661 7.59229 44.7328 7.53189 44.649L7.19228 44.4292C6.87265 44.2162 6.60628 43.9498 6.39319 43.6302C5.86047 42.9909 5.70065 42.1918 5.91374 41.2329L13.585 7.03198L16.4617 44.7489H8.47082ZM61.69 2.5571C61.69 2.87673 61.6367 3.19637 61.5302 3.516L48.9046 46.347H81.0279V2.5571H61.69ZM101.485 63.4475C102.443 62.7017 102.923 61.6895 102.923 60.411C102.923 57.1081 101.271 55.4566 97.9685 55.4566C94.6656 55.4566 93.0142 57.1081 93.0142 60.411C93.0142 63.3942 94.6656 64.8859 97.9685 64.8859C99.2471 64.8859 100.419 64.4064 101.485 63.4475ZM95.2516 60.411C95.2516 58.4932 96.1573 57.5343 97.9685 57.5343C99.6733 57.5343 100.526 58.4932 100.526 60.411C100.526 62.1157 99.6733 62.9681 97.9685 62.9681C96.1573 62.9681 95.2516 62.1157 95.2516 60.411ZM96.69 47.1461H98.448C101.751 47.1461 104.468 48.3181 106.599 50.6621C108.943 52.8996 110.115 55.5632 110.115 58.653V61.2101H111.393V56.895C111.393 53.8052 110.008 50.9285 107.238 48.2649C104.361 45.6012 101.271 44.2694 97.9685 44.2694H95.8909C93.1207 44.2694 90.6702 45.3349 88.5393 47.4658C86.6215 49.5967 85.5561 51.8874 85.343 54.3379V61.5297H87.101V56.895C87.101 54.2314 88.0599 51.9407 89.9777 50.0229C92.002 48.105 94.2395 47.1461 96.69 47.1461ZM115.708 19.9772H116.987L116.667 18.8585C116.028 16.4079 112.299 15.1827 105.48 15.1827H91.416V44.1096C92.8011 43.4703 94.2927 43.1507 95.8909 43.1507H97.9685C101.804 43.1507 105.214 44.5891 108.197 47.4658C110.541 49.5967 111.926 52.1005 112.352 54.9772H118.905V52.5799H121.781L120.183 48.105H121.781V46.0274H120.343V39.7945H121.781V38.8356C121.781 38.1964 121.675 37.2907 121.462 36.1187L118.905 35.4795L115.708 19.9772ZM112.832 22.6941C112.832 22.0548 113.098 21.7352 113.631 21.7352H114.27C114.803 21.7352 115.069 22.0548 115.069 22.6941V31.1644L114.27 32.1233H113.631C113.098 32.1233 112.832 31.8037 112.832 31.1644V22.6941ZM111.873 21.7352L111.713 22.6941V31.1644C111.713 32.3364 112.352 32.9224 113.631 32.9224H114.27L115.069 32.6028L115.389 34.6804L101.964 32.2831C101.005 32.2831 100.526 31.7504 100.526 30.6849V21.7352H111.873ZM104.361 40.9133H100.206V39.7945H104.361V40.9133Z" fill="white"/>
<path d="M3.19685 11.1872C2.77067 11.1872 2.39776 11.2938 2.07812 11.5069V40.274L8.47082 11.1872H3.19685Z" fill="#A6325C"/>
<path d="M7.53174 44.649C7.59214 44.7328 7.90512 44.7661 8.47067 44.7488H16.4615L13.5848 7.03195L5.91359 41.2329C5.7005 42.1918 5.86032 42.9909 6.39304 43.6301C6.60613 43.9498 6.8725 44.2161 7.19213 44.4292L7.53174 44.649Z" fill="#F23D5E"/>
</svg>
