<svg width="173" height="70" viewBox="0 0 173 70" fill="none" xmlns="http://www.w3.org/2000/svg">
<path d="M168.7 28.7C167.922 25.4333 164.189 23.0222 157.5 21.4667C153.456 20.8444 145.989 20.1444 135.1 19.3667H128.333L117.833 11.6667C109.433 4.66667 101.733 0.777778 94.7333 0H44.1C31.1889 0 20.6889 0.933335 12.6 2.8L10.9667 3.26667L11.6667 6.06666V6.76667L10.9667 7.23333V8.4C10.3444 9.48888 9.1 13.3 7.23333 19.8333C5.67777 20.9222 4.35555 22.4 3.26667 24.2667V33.6C3.26667 35.9333 2.33333 37.4111 0.466664 38.0333L0 38.7333V50.1667L1.16667 50.8667C1.94444 51.4889 4.51111 52.7333 8.86666 54.6C14.3111 57.2444 18.7444 58.5667 22.1667 58.5667H24.7333C25.8222 61.5222 27.5333 64.0889 29.8667 66.2667C33.1333 68.7556 36.5556 70 40.1333 70C43.5556 70 46.9 68.7556 50.1667 66.2667C52.6556 64.0889 54.2889 61.5222 55.0667 58.5667H127.867C128.956 61.5222 130.589 64.0889 132.767 66.2667C136.033 68.7556 139.533 70 143.267 70C146.533 70 149.8 68.7556 153.067 66.2667C155.711 64.0889 157.422 61.5222 158.2 58.5667H160.767C165.589 58.4111 169.089 57.6333 171.267 56.2333C172.356 55.1444 172.9 53.6667 172.9 51.8V41.5333C172.9 39.9778 172.044 38.6556 170.333 37.5667L168.7 28.7ZM135.567 61.8333C133.7 59.9667 132.767 57.5556 132.767 54.6C132.767 47.6 136.267 44.1 143.267 44.1C149.8 44.1 153.067 47.6 153.067 54.6C153.067 57.5556 152.211 59.9667 150.5 61.8333C148.633 63.7 146.222 64.6333 143.267 64.6333C140.311 64.6333 137.744 63.7 135.567 61.8333ZM50.1667 54.6C50.1667 57.5556 49.2333 59.9667 47.3667 61.8333C45.5 63.7 43.0889 64.6333 40.1333 64.6333C33.2889 64.6333 29.8667 61.2889 29.8667 54.6C29.8667 47.6 33.2889 44.1 40.1333 44.1C43.0889 44.1 45.5 45.0333 47.3667 46.9C49.2333 49.0778 50.1667 51.6444 50.1667 54.6ZM165.2 29.8667L165.433 30.8L166.6 37.5667L166.833 39.6667L168 40.3667L169.167 41.5333V52.9667C167.767 53.9 164.967 54.4444 160.767 54.6V51.3333C160.767 46.5111 158.978 42.3111 155.4 38.7333C152.133 35.3111 148.089 33.6 143.267 33.6C138.133 33.6 133.933 35.3111 130.667 38.7333C126.933 42.3111 125.067 46.5111 125.067 51.3333V54.6H91L100.333 22.4V22.1667H108.5C109.278 18.4333 110.056 16.0222 110.833 14.9333L112.467 14.4667C106.244 9.64445 100.178 6.68889 94.2667 5.6H44.1C30.5667 5.6 24.7528 7.84583 26.6583 12.3375L30.1875 20.6208C30.5958 21.9625 31.7333 22.6333 33.6 22.6333L81.4333 22.4L72.3333 54.6H69.0667H68.3667H65.1H57.8667V51.3333C57.8667 50.2444 57.7889 49.2333 57.6333 48.3C57.3222 46.2778 56.6222 44.4889 55.5333 42.9333C54.7556 41.5333 53.7444 40.2111 52.5 38.9667L52.2667 38.7333C49 35.3111 44.9556 33.6 40.1333 33.6C35 33.6 30.8 35.3111 27.5333 38.7333C23.9556 42.3111 22.1667 46.5111 22.1667 51.3333V54.6C17.1889 54.4444 11.1222 52.2667 3.96666 48.0667V40.3667C5.67777 38.5 6.53333 36.4778 6.53333 34.3L6.76667 33.6C6.5808 30.7905 6.73636 27.9127 7.23333 24.9667L9.33333 22.6333H18.6667L16.1 10.0333H14.2333V8.86666C15.0111 8.08889 15.2444 7.15555 14.9333 6.06666C21.9333 4.66666 31.6555 3.96667 44.1 3.96667H94.2667C100.178 4.74445 107.333 8.24445 115.733 14.4667L126.7 22.6333L135.1 23.3333C154.544 24.4222 164.578 26.6 165.2 29.8667ZM59.9667 27.0667V24.2667H51.8V27.0667H59.9667ZM114.1 16.1C113.633 15.6333 113.089 15.7889 112.467 16.5667C111.378 17.6556 110.833 19.6778 110.833 22.6333C110.804 23.0222 110.959 23.4111 111.3 23.8C111.689 24.1324 112.078 24.2879 112.467 24.2667H116.2C119.156 24.2667 118.456 21.5444 114.1 16.1Z" fill="#BF2A61"/>
<path d="M165.433 30.8L165.2 29.8667C164.578 26.6 154.545 24.4222 135.1 23.3333L126.7 22.6333L115.733 14.4667C107.333 8.24445 100.178 4.74445 94.2668 3.96667H44.1001C31.6557 3.96667 21.9335 4.66667 14.9335 6.06667C15.2446 7.15556 15.0112 8.08889 14.2335 8.86667V10.0333H16.1001L18.6668 22.6333H9.33347L7.23346 24.9667H15.4001V27.5333C15.4001 29.0889 14.4668 30.5667 12.6001 31.9667C10.889 33.0556 8.94458 33.6 6.7668 33.6L6.53346 34.3C6.53346 36.4778 5.67791 38.5 3.9668 40.3667V48.0667C11.1224 52.2667 17.189 54.4445 22.1668 54.6V51.3333C22.1668 46.5111 23.9557 42.3111 27.5335 38.7333C30.8001 35.3111 35.0001 33.6 40.1335 33.6C44.9557 33.6 49.0001 35.3111 52.2668 38.7333L52.5001 38.9667L52.0335 31.0333C52.0335 30.4111 52.2668 29.7889 52.7335 29.1667C53.2001 28.7 53.8223 28.4667 54.6001 28.4667H58.8001L55.5335 42.9333C56.6224 44.4889 57.3224 46.2778 57.6335 48.3L62.7668 25.2L65.1001 54.6H68.3668L65.8001 25.6667C65.8001 24.8889 66.0335 24.1889 66.5001 23.5667C67.1224 23.1 67.7446 22.8667 68.3668 22.8667H78.1668L69.0668 54.6H72.3335L81.4335 22.4L33.6001 22.6333C31.7335 22.6333 30.596 21.9625 30.1876 20.6208L26.6585 12.3375C24.7529 7.84584 30.5668 5.60001 44.1001 5.60001H94.2668C100.178 6.6889 106.245 9.64445 112.467 14.4667L110.833 14.9333C110.056 16.0222 109.278 18.4333 108.5 22.1667H100.333V22.4L91.0001 54.6H125.067V51.3333C125.067 46.5111 126.933 42.3111 130.667 38.7333C133.933 35.3111 138.133 33.6 143.267 33.6C148.089 33.6 152.133 35.3111 155.4 38.7333C158.978 42.3111 160.767 46.5111 160.767 51.3333V54.6C164.967 54.4445 167.767 53.9 169.167 52.9667V41.5333L168 40.3667L166.833 39.6667L166.6 37.5667H166.367L160.3 38.7333L155.4 29.8667L165.433 30.8ZM112.467 16.5667C113.089 15.7889 113.633 15.6333 114.1 16.1C118.456 21.5445 119.156 24.2667 116.2 24.2667H112.467C112.078 24.2879 111.689 24.1324 111.3 23.8C110.959 23.4111 110.804 23.0222 110.833 22.6333C110.833 19.6778 111.378 17.6556 112.467 16.5667ZM59.9668 24.2667V27.0667H51.8001V24.2667H59.9668ZM47.3668 61.8333C49.2335 59.9667 50.1668 57.5556 50.1668 54.6C50.1668 51.6445 49.2335 49.0778 47.3668 46.9C45.5001 45.0333 43.089 44.1 40.1335 44.1C33.289 44.1 29.8668 47.6 29.8668 54.6C29.8668 61.2889 33.289 64.6333 40.1335 64.6333C43.089 64.6333 45.5001 63.7 47.3668 61.8333ZM35.9335 54.6C35.9335 51.6445 37.3335 50.1667 40.1335 50.1667C42.7779 50.1667 44.1001 51.6445 44.1001 54.6C44.1001 57.2445 42.7779 58.5667 40.1335 58.5667C37.3335 58.5667 35.9335 57.2445 35.9335 54.6ZM132.767 54.6C132.767 57.5556 133.7 59.9667 135.567 61.8333C137.745 63.7 140.311 64.6333 143.267 64.6333C146.222 64.6333 148.633 63.7 150.5 61.8333C152.211 59.9667 153.067 57.5556 153.067 54.6C153.067 47.6 149.8 44.1 143.267 44.1C136.267 44.1 132.767 47.6 132.767 54.6ZM147 54.6C147 57.2445 145.756 58.5667 143.267 58.5667C140.311 58.5667 138.833 57.2445 138.833 54.6C138.833 51.6445 140.311 50.1667 143.267 50.1667C145.756 50.1667 147 51.6445 147 54.6Z" fill="white"/>
<path d="M15.3996 27.5334V24.9667H7.23298C6.73601 27.9128 6.58045 30.7905 6.76632 33.6C8.94409 33.6 10.8885 33.0556 12.5996 31.9667C14.4663 30.5667 15.3996 29.0889 15.3996 27.5334ZM66.4996 23.5667C66.033 24.1889 65.7996 24.8889 65.7996 25.6667L68.3663 54.6H69.0663L78.1663 22.8667H68.3663C67.7441 22.8667 67.1219 23.1 66.4996 23.5667ZM165.433 30.8L155.4 29.8667L160.3 38.7334L166.366 37.5667H166.6L165.433 30.8ZM40.133 50.1667C37.333 50.1667 35.933 51.6445 35.933 54.6C35.933 57.2445 37.333 58.5667 40.133 58.5667C42.7774 58.5667 44.0996 57.2445 44.0996 54.6C44.0996 51.6445 42.7774 50.1667 40.133 50.1667ZM143.266 58.5667C145.755 58.5667 147 57.2445 147 54.6C147 51.6445 145.755 50.1667 143.266 50.1667C140.311 50.1667 138.833 51.6445 138.833 54.6C138.833 57.2445 140.311 58.5667 143.266 58.5667Z" fill="#F2A649"/>
<path d="M57.8661 51.3333V54.6H65.0995L62.7661 25.2L57.6328 48.2999C57.7884 49.2333 57.8661 50.2444 57.8661 51.3333Z" fill="#F23D5E"/>
<path d="M52.7332 29.1667C52.2665 29.7889 52.0332 30.4111 52.0332 31.0333L52.4999 38.9667C53.7443 40.2111 54.7554 41.5333 55.5332 42.9333L58.7999 28.4667H54.5999C53.8221 28.4667 53.1999 28.7 52.7332 29.1667Z" fill="#A6325C"/>
</svg>
