<svg width="153" height="70" viewBox="0 0 153 70" fill="none" xmlns="http://www.w3.org/2000/svg">
<path d="M7.73989 60.3686V57.4448V55.8969H5.33203V61.9165H7.73989V60.3686ZM65.1846 27.0025C65.9872 27.8051 67.1338 28.2065 68.6244 28.2065C67.7277 26.4427 65.7212 24.8374 62.6048 23.3907C63.6367 25.34 64.4967 26.5439 65.1846 27.0025ZM16.6834 22.0148L14.2755 22.3588C13.7938 23.531 13.5644 24.5629 13.5876 25.4546H15.1355C16.2821 23.964 16.798 22.8174 16.6834 22.0148ZM56.2411 62.0885C58.0757 62.0885 58.993 61.1139 58.993 59.1647C58.993 57.3301 58.0757 56.4128 56.2411 56.4128C54.1772 56.4128 53.1453 57.3301 53.1453 59.1647C53.1453 61.1139 54.1772 62.0885 56.2411 62.0885ZM58.649 34.3981C58.649 35.43 59.165 35.946 60.1969 35.946C61.2288 35.946 61.7448 35.43 61.7448 34.3981C61.7448 33.3662 61.2288 32.8502 60.1969 32.8502C59.165 32.8502 58.649 33.3662 58.649 34.3981ZM92.875 30.4423C92.875 32.7355 94.0216 33.8821 96.3148 33.8821C98.7227 33.8821 99.9266 32.7355 99.9266 30.4423C99.9266 27.9198 98.7227 26.6585 96.3148 26.6585C94.0216 26.6585 92.875 27.9198 92.875 30.4423ZM34.7424 59.1647C34.7424 57.3301 33.8251 56.4128 31.9905 56.4128C29.9266 56.4128 28.8947 57.3301 28.8947 59.1647C28.8947 61.1139 29.9266 62.0885 31.9905 62.0885C33.8251 62.0885 34.7424 61.1139 34.7424 59.1647ZM18.4033 34.3981C18.4033 35.43 18.9193 35.946 19.9512 35.946C20.9831 35.946 21.4991 35.43 21.4991 34.3981C21.4991 33.3662 20.9831 32.8502 19.9512 32.8502C18.9193 32.8502 18.4033 33.3662 18.4033 34.3981ZM125.553 56.4128C123.719 56.4128 122.801 57.3301 122.801 59.1647C122.801 61.1139 123.719 62.0885 125.553 62.0885C127.388 62.0885 128.305 61.1139 128.305 59.1647C128.305 57.3301 127.388 56.4128 125.553 56.4128ZM133.981 10.6635C133.866 10.6635 133.751 10.6635 133.637 10.6635H129.165C128.821 10.7781 128.556 10.9286 128.37 11.1149C127.868 11.6166 127.674 12.2687 127.789 13.0713L130.025 40.9337V41.2777C130.369 41.3924 130.713 41.507 131.057 41.6217L132.089 38.1819H131.401V36.634H132.605L134.497 29.9264L133.121 29.5824C132.089 29.5824 131.573 28.9517 131.573 27.6905V18.059H137.936C137.936 17.8297 137.994 17.6004 138.108 17.3711L140.086 11.1149L140.108 11.0934C140.032 11.0884 139.953 11.0813 139.871 11.0719C139.169 10.9597 138.41 10.8809 137.592 10.8354L133.981 10.6635Z" fill="#F2A649"/>
<path d="M116.609 5.33169C115.119 5.33169 114.373 5.96232 114.373 7.22358L112.31 47.4693C112.195 47.5839 112.08 47.7559 111.966 47.9853H63.2924C61.3432 46.8387 58.9926 46.2654 56.2408 46.2654C53.3743 46.2654 50.9091 46.8387 48.8452 47.9853H39.0418C37.0925 46.8387 34.742 46.2654 31.9902 46.2654C31.7609 46.2654 31.5315 46.2654 31.3022 46.2654V46.0934H109.558V0H103.71V23.0467C103.251 22.7027 102.563 22.5307 101.646 22.5307H92.3587C91.4415 22.5307 90.6962 22.8174 90.1229 23.3907L84.9632 28.7224H82.5553L82.7273 26.8305L83.5872 28.3784L84.6192 27.5184L80.4914 23.2187L79.6315 24.0786L80.8354 25.2826L79.9754 28.5504L77.3956 28.3784V33.3661L71.032 34.398L70.516 27.3464C70.0573 25.5119 68.1654 23.7346 64.8403 22.0147C61.7445 20.6388 59.1646 19.8362 57.1007 19.6069L56.5848 19.2629C48.9025 14.6765 42.5962 12.2113 37.6659 11.8673H32.1622C26.5438 11.8673 22.4161 12.3833 19.7789 13.4152L18.4029 13.7592L19.4349 14.9631C13.5872 18.4029 11.0074 21.6708 11.6953 24.7666C11.6953 24.9959 11.294 25.5119 10.4914 26.3145L10.1474 26.6585V33.5381L11.0074 35.086C11.81 35.774 12.7846 36.2326 13.9312 36.4619L15.4791 38.6978C16.1671 39.5004 17.0844 40.0164 18.231 40.2457H0V46.0934H15.1351V47.9853H9.28747V55.0369H10.4914L7.73956 57.4447V60.3685L12.3833 57.2727H18.9189C18.8043 57.846 18.7469 58.4767 18.7469 59.1646V60.1966H21.1548C21.6134 63.0631 22.6454 65.2416 24.2506 66.7322C26.0852 68.9107 28.665 70 31.9902 70C35.086 70 37.5512 68.9107 39.3858 66.7322C41.1057 65.2416 42.1376 63.0631 42.4816 60.1966H45.4054C45.7494 62.8337 46.7813 65.0123 48.5012 66.7322C50.3358 68.9107 52.9156 70 56.2408 70C59.3366 70 61.8018 68.9107 63.6364 66.7322C65.2416 65.2416 66.2736 63.0631 66.7322 60.1966H69.1401V59.1646C69.1401 57.674 68.9681 56.2981 68.6241 55.0369H71.7199V58.3047C71.7199 59.7953 72.4079 60.5405 73.7838 60.5405H88.403C89.7789 60.5405 90.4668 59.7953 90.4668 58.3047V57.4447H92.0148V57.6167C92.0148 59.5659 92.8747 60.5405 94.5946 60.5405C95.6265 60.5405 96.5438 59.9099 97.3464 58.6486H100.442C101.245 59.9099 102.048 60.5405 102.85 60.5405C104.799 60.5405 105.774 59.5659 105.774 57.6167V57.4447H106.634V60.1966H110.59V62.0885H115.233C115.577 64.0377 116.437 65.5856 117.813 66.7322C119.648 68.9107 122.228 70 125.553 70C128.649 70 131.114 68.9107 132.948 66.7322C134.439 65.7002 135.471 63.923 136.044 61.4005H136.216L136.904 62.0885L137.248 62.2604H145.676L152.727 60.5405V50.9091L151.867 48.1572H152.727V36.2899C152.727 32.9648 151.409 27.1171 148.772 18.7469L147.224 13.7592C146.192 10.2048 141.663 8.42752 133.636 8.42752H128.821C124.808 6.36363 120.737 5.33169 116.609 5.33169ZM133.636 10.6634C133.751 10.6634 133.866 10.6634 133.98 10.6634L137.592 10.8354C138.41 10.8808 139.169 10.9596 139.871 11.0719C139.952 11.0812 140.031 11.0884 140.108 11.0934L140.086 11.1149C141.088 11.2936 141.977 11.5444 142.752 11.8673L141.032 18.059H143.612L143.268 19.0909V28.3784C143.268 29.7543 144.013 30.4423 145.504 30.4423H146.192L147.052 29.9263L147.396 31.9902L137.592 30.4423L135.7 36.6339H136.044V38.1818H135.356L133.808 43.1695C132.891 42.4816 131.974 41.9656 131.057 41.6216C130.713 41.507 130.369 41.3923 130.025 41.2776C128.993 40.9337 127.889 40.7115 126.714 40.6112C126.513 40.5968 126.241 40.5897 125.897 40.5897H123.317C121.712 40.5897 120.164 40.9337 118.673 41.6216V38.3538V24.4226V15.9951V10.6634H129.165H133.636ZM145.16 17.543H145.848C146.65 17.543 147.052 17.8296 147.052 18.4029V28.5504C147.052 29.1237 146.765 29.4103 146.192 29.4103H145.504C144.701 29.4103 144.3 29.1237 144.3 28.5504V18.4029C144.3 17.8296 144.586 17.543 145.16 17.543ZM150.835 50.9091H147.74V53.317H140.86C140.449 50.8497 139.388 48.6138 137.678 46.6093H149.459L150.835 50.9091ZM123.317 42.1376H125.553C128.993 42.1376 132.26 43.5135 135.356 46.2654C138.337 49.1319 139.828 52.2277 139.828 55.5528V60.1966H138.452V57.6167C138.452 54.4062 137.248 51.5397 134.84 49.0172C132.547 46.4947 129.623 45.2334 126.069 45.2334H124.349C121.368 45.2334 118.845 46.2654 116.781 48.3292C114.717 50.3931 113.686 52.9156 113.686 55.8968V60.7125H112.138V52.801C112.252 50.1638 113.399 47.7559 115.577 45.5774C117.871 43.2842 120.45 42.1376 123.317 42.1376ZM141.032 56.7568V55.5528C141.032 55.3235 141.032 55.0942 141.032 54.8649H147.74V56.7568H141.032ZM141.032 60.1966V57.9607H150.835V58.9926L145.332 60.1966H141.032ZM130.713 59.1646C130.713 60.6552 130.197 61.9165 129.165 62.9484C128.133 63.9803 126.929 64.4963 125.553 64.4963C121.998 64.4963 120.221 62.7191 120.221 59.1646C120.221 55.7248 121.998 54.0049 125.553 54.0049C126.929 54.0049 128.133 54.5209 129.165 55.5528C130.197 56.5848 130.713 57.7887 130.713 59.1646ZM105.602 2.06388H107.494V44.2015H1.89189V42.3096H105.602V2.06388ZM19.7789 38.3538C16.9124 38.3538 15.4791 36.9779 15.4791 34.226C15.4791 31.3595 16.9124 29.9263 19.7789 29.9263C22.76 29.9263 24.2506 31.3595 24.2506 34.226C24.2506 36.9779 22.76 38.3538 19.7789 38.3538ZM24.2506 38.6978L25.6265 36.9779H54.3489L55.7248 38.6978C56.4128 39.5004 57.3301 40.0164 58.4767 40.2457H21.6708C22.8174 40.0164 23.6773 39.5004 24.2506 38.6978ZM35.43 62.9484C34.6274 63.9803 33.4808 64.4963 31.9902 64.4963C28.5504 64.4963 26.8305 62.7191 26.8305 59.1646C26.8305 57.7887 27.3464 56.5848 28.3784 55.5528C29.4103 54.5209 30.6143 54.0049 31.9902 54.0049C33.4808 54.0049 34.6274 54.5209 35.43 55.5528C36.4619 56.5848 36.9779 57.7887 36.9779 59.1646C36.9779 60.6552 36.4619 61.9165 35.43 62.9484ZM91.6708 24.9386L92.3587 24.7666H101.646C102.219 24.7666 102.506 25.0532 102.506 25.6265V39.5577H76.8796L91.6708 24.9386ZM77.3956 34.914V36.2899L73.4398 40.2457H61.9165C63.0631 40.0164 63.923 39.5004 64.4963 38.6978L66.0442 36.9779C67.4202 36.8632 68.7961 36.6339 70.172 36.2899L71.032 35.9459L77.3956 34.914ZM64.4963 34.226C64.4963 36.9779 63.0057 38.3538 60.0246 38.3538C57.1581 38.3538 55.7248 36.9779 55.7248 34.226C55.7248 31.3595 57.1581 29.9263 60.0246 29.9263C63.0057 29.9263 64.4963 31.3595 64.4963 34.226ZM61.0565 59.1646C61.0565 60.6552 60.5405 61.9165 59.5086 62.9484C58.706 63.9803 57.6167 64.4963 56.2408 64.4963C52.6863 64.4963 50.9091 62.7191 50.9091 59.1646C50.9091 57.7887 51.4251 56.5848 52.457 55.5528C53.4889 54.5209 54.7502 54.0049 56.2408 54.0049C57.6167 54.0049 58.706 54.5209 59.5086 55.5528C60.5405 56.5848 61.0565 57.7887 61.0565 59.1646ZM32.1622 13.7592H37.6659C42.2523 14.1032 48.1572 16.5684 55.3808 21.1548L56.5848 21.6708H56.9287C58.3047 21.6708 60.1966 22.2441 62.6044 23.3907C65.7209 24.8374 67.7274 26.4426 68.6241 28.2064L68.9681 34.398L67.5921 34.57V33.7101C67.5921 31.8755 66.8469 30.2129 65.3563 28.7224C64.095 27.2318 62.3178 26.4865 60.0246 26.4865C57.9607 26.4865 56.2408 27.2318 54.8649 28.7224C53.3743 30.2129 52.629 31.8755 52.629 33.7101V34.742H27.3464V33.7101C27.3464 31.8755 26.6012 30.2129 25.1106 28.7224C23.8493 27.2318 22.0721 26.4865 19.7789 26.4865C17.715 26.4865 15.9951 27.2318 14.6192 28.7224C13.2432 30.0983 12.498 31.5889 12.3833 33.1941C12.2686 32.9648 12.154 32.7355 12.0393 32.5061V27.6904C12.8419 27.3464 13.3579 26.6011 13.5872 25.4545C13.5641 24.5629 13.7934 23.5309 14.2752 22.3587C14.7338 21.7854 15.3071 21.1548 15.9951 20.4668H17.543L22.1867 15.4791L21.8428 14.9631C25.1679 14.1605 28.6077 13.7592 32.1622 13.7592ZM50.7371 19.6069C50.5078 19.3776 50.1638 19.4922 49.7052 19.9509C49.1319 20.2948 48.8452 20.8681 48.8452 21.6708C48.8183 22.0431 48.933 22.387 49.1892 22.7027L49.7052 23.0467H50.5651L50.9091 23.5626L51.5971 23.9066L51.941 23.5626C52.1704 23.5626 52.285 23.448 52.285 23.2187L53.145 22.3587L52.801 21.4988C52.457 20.4668 51.769 19.8362 50.7371 19.6069ZM38.3538 25.1106V23.5626H35.43V25.1106H38.3538ZM24.5946 22.3587H21.8428V23.9066H24.5946V22.3587ZM37.6659 15.3071H30.2703C27.9771 15.3071 25.2826 17.1417 22.1867 20.8108L48.1572 22.3587V21.6708C48.1572 20.6388 48.5012 19.8362 49.1892 19.2629H49.3612V18.9189C44.8894 16.6257 40.991 15.4218 37.6659 15.3071Z" fill="#BF2A61"/>
<path d="M37.6656 13.7592H32.1619C28.6074 13.7592 25.1676 14.1605 21.8425 14.9631L22.1864 15.4791L17.5427 20.4668H15.9948C15.3068 21.1548 14.7335 21.7854 14.2749 22.3587L16.6828 22.0147C16.7974 22.8173 16.2814 23.9639 15.1348 25.4545H13.5869C13.3576 26.6011 12.8416 27.3464 12.039 27.6904V32.5061C12.1537 32.7354 12.2683 32.9647 12.383 33.1941C12.4977 31.5888 13.243 30.0982 14.6189 28.7223C15.9948 27.2317 17.7147 26.4865 19.7786 26.4865C22.0718 26.4865 23.849 27.2317 25.1103 28.7223C26.6009 30.2129 27.3461 31.8755 27.3461 33.71V34.742H52.6287V33.71C52.6287 31.8755 53.374 30.2129 54.8646 28.7223C56.2405 27.2317 57.9604 26.4865 60.0243 26.4865C62.3175 26.4865 64.0947 27.2317 65.356 28.7223C66.8466 30.2129 67.5919 31.8755 67.5919 33.71V34.57L68.9678 34.398L68.6238 28.2064C67.1332 28.2064 65.9866 27.805 65.184 27.0024C64.496 26.5438 63.6361 25.3398 62.6041 23.3906C60.1963 22.244 58.3044 21.6707 56.9285 21.6707H56.5845L55.3806 21.1548C48.157 16.5684 42.252 14.1032 37.6656 13.7592ZM30.27 15.3071H37.6656C40.9907 15.4217 44.8891 16.6257 49.3609 18.9189V19.2629H49.1889C48.5009 19.8362 48.157 20.6388 48.157 21.6707V22.3587L22.1864 20.8108C25.2823 17.1417 27.9768 15.3071 30.27 15.3071ZM21.8425 22.3587H24.5943V23.9066H21.8425V22.3587ZM38.3535 23.5626V25.1105H35.4297V23.5626H38.3535ZM49.7049 19.9508C50.1635 19.4922 50.5075 19.3775 50.7368 19.6068C51.7688 19.8362 52.4567 20.4668 52.8007 21.4987L53.1447 22.3587L52.2847 23.2186C52.2847 23.448 52.1701 23.5626 51.9407 23.5626L51.5968 23.9066L50.9088 23.5626L50.5648 23.0466H49.7049L49.1889 22.7027C48.9327 22.387 48.8181 22.043 48.8449 21.6707C48.8449 20.8681 49.1316 20.2948 49.7049 19.9508ZM59.5083 62.9484C60.5403 61.9164 61.0562 60.6552 61.0562 59.1646C61.0562 57.7887 60.5403 56.5847 59.5083 55.5528C58.7057 54.5208 57.6164 54.0049 56.2405 54.0049C54.7499 54.0049 53.4887 54.5208 52.4567 55.5528C51.4248 56.5847 50.9088 57.7887 50.9088 59.1646C50.9088 62.7191 52.686 64.4963 56.2405 64.4963C57.6164 64.4963 58.7057 63.9803 59.5083 62.9484ZM58.9923 59.1646C58.9923 61.1138 58.0751 62.0884 56.2405 62.0884C54.1766 62.0884 53.1447 61.1138 53.1447 59.1646C53.1447 57.33 54.1766 56.4127 56.2405 56.4127C58.0751 56.4127 58.9923 57.33 58.9923 59.1646ZM60.0243 38.3538C63.0054 38.3538 64.496 36.9779 64.496 34.226C64.496 31.3595 63.0054 29.9263 60.0243 29.9263C57.1578 29.9263 55.7245 31.3595 55.7245 34.226C55.7245 36.9779 57.1578 38.3538 60.0243 38.3538ZM60.1963 35.9459C59.1643 35.9459 58.6484 35.4299 58.6484 34.398C58.6484 33.3661 59.1643 32.8501 60.1963 32.8501C61.2282 32.8501 61.7442 33.3661 61.7442 34.398C61.7442 35.4299 61.2282 35.9459 60.1963 35.9459ZM92.3584 24.7665L91.6705 24.9385L76.8793 39.5577H102.506V25.6265C102.506 25.0532 102.219 24.7665 101.646 24.7665H92.3584ZM96.3142 33.882C94.021 33.882 92.8744 32.7354 92.8744 30.4422C92.8744 27.9197 94.021 26.6584 96.3142 26.6584C98.7221 26.6584 99.926 27.9197 99.926 30.4422C99.926 32.7354 98.7221 33.882 96.3142 33.882ZM31.9899 64.4963C33.4805 64.4963 34.6271 63.9803 35.4297 62.9484C36.4616 61.9164 36.9776 60.6552 36.9776 59.1646C36.9776 57.7887 36.4616 56.5847 35.4297 55.5528C34.6271 54.5208 33.4805 54.0049 31.9899 54.0049C30.614 54.0049 29.41 54.5208 28.3781 55.5528C27.3461 56.5847 26.8302 57.7887 26.8302 59.1646C26.8302 62.7191 28.5501 64.4963 31.9899 64.4963ZM31.9899 56.4127C33.8244 56.4127 34.7417 57.33 34.7417 59.1646C34.7417 61.1138 33.8244 62.0884 31.9899 62.0884C29.926 62.0884 28.8941 61.1138 28.8941 59.1646C28.8941 57.33 29.926 56.4127 31.9899 56.4127ZM15.4788 34.226C15.4788 36.9779 16.9121 38.3538 19.7786 38.3538C22.7597 38.3538 24.2503 36.9779 24.2503 34.226C24.2503 31.3595 22.7597 29.9263 19.7786 29.9263C16.9121 29.9263 15.4788 31.3595 15.4788 34.226ZM19.9506 35.9459C18.9186 35.9459 18.4027 35.4299 18.4027 34.398C18.4027 33.3661 18.9186 32.8501 19.9506 32.8501C20.9825 32.8501 21.4985 33.3661 21.4985 34.398C21.4985 35.4299 20.9825 35.9459 19.9506 35.9459ZM107.494 2.06384H105.602V42.3095H1.8916V44.2014H107.494V2.06384ZM129.164 62.9484C130.196 61.9164 130.712 60.6552 130.712 59.1646C130.712 57.7887 130.196 56.5847 129.164 55.5528C128.132 54.5208 126.928 54.0049 125.553 54.0049C121.998 54.0049 120.221 55.7248 120.221 59.1646C120.221 62.7191 121.998 64.4963 125.553 64.4963C126.928 64.4963 128.132 63.9803 129.164 62.9484ZM122.801 59.1646C122.801 57.33 123.718 56.4127 125.553 56.4127C127.387 56.4127 128.304 57.33 128.304 59.1646C128.304 61.1138 127.387 62.0884 125.553 62.0884C123.718 62.0884 122.801 61.1138 122.801 59.1646ZM141.032 57.9607V60.1965H145.331L150.835 58.9926V57.9607H141.032ZM141.032 55.5528V56.7567H147.739V54.8648H141.032C141.032 55.0942 141.032 55.3235 141.032 55.5528ZM125.553 42.1376H123.317C120.45 42.1376 117.87 43.2842 115.577 45.5774C113.399 47.7559 112.252 50.1638 112.137 52.8009V60.7125H113.685V55.8968C113.685 52.9156 114.717 50.3931 116.781 48.3292C118.845 46.2653 121.367 45.2334 124.349 45.2334H126.069C129.623 45.2334 132.547 46.4946 134.84 49.0172C137.248 51.5397 138.452 54.4062 138.452 57.6167V60.1965H139.828V55.5528C139.828 52.2276 138.337 49.1318 135.356 46.2653C132.26 43.5135 128.992 42.1376 125.553 42.1376ZM147.739 50.9091H150.835L149.459 46.6093H137.678C139.388 48.6138 140.448 50.8497 140.86 53.3169H147.739V50.9091ZM145.847 17.543H145.159C144.586 17.543 144.299 17.8296 144.299 18.4029V28.5503C144.299 29.1236 144.701 29.4103 145.503 29.4103H146.191C146.765 29.4103 147.051 29.1236 147.051 28.5503V18.4029C147.051 17.8296 146.65 17.543 145.847 17.543ZM135.356 38.1818H136.044V36.6339H135.7H132.604H131.4V38.1818H132.088H135.356ZM143.268 19.0909L143.612 18.0589H141.032H137.936H131.572V27.6904C131.572 28.9516 132.088 29.5823 133.12 29.5823L134.496 29.9263L137.592 30.4422L147.395 31.9901L147.051 29.9263L146.191 30.4422H145.503C144.013 30.4422 143.268 29.7543 143.268 28.3783V19.0909ZM128.369 11.1148C128.555 10.9285 128.82 10.778 129.164 10.6634H118.673V15.9951H120.565L118.673 24.4226V38.3538L124.521 12.7272L126.713 40.6111C127.889 40.7115 128.992 40.9336 130.024 41.2776V40.9336L127.788 13.0712C127.674 12.2686 127.867 11.6165 128.369 11.1148Z" fill="white"/>
<path d="M118.673 38.3538V41.6216C120.163 40.9337 121.711 40.5897 123.317 40.5897H125.896C126.24 40.5897 126.513 40.5969 126.713 40.6112L124.521 12.7273L118.673 38.3538Z" fill="#F23D5E"/>
<path d="M118.673 15.9951V24.4226L120.565 15.9951H118.673Z" fill="#A6325C"/>
</svg>
