<svg width="241" height="70" viewBox="0 0 241 70" fill="none" xmlns="http://www.w3.org/2000/svg">
<path d="M1.83887 55.2251V58.6726H11.4918L4.00584 55.2251H1.83887ZM40.5818 58.0159C43.2304 58.0159 44.5546 56.6807 44.5546 54.0103C44.5546 50.9021 43.2304 49.348 40.5818 49.348C37.9114 49.348 36.5762 50.9021 36.5762 54.0103C36.5762 56.6807 37.9114 58.0159 40.5818 58.0159ZM200.807 54.0103C200.807 56.6807 202.131 58.0159 204.78 58.0159C207.45 58.0159 208.785 56.6807 208.785 54.0103C208.785 50.9021 207.45 49.348 204.78 49.348C202.131 49.348 200.807 50.9021 200.807 54.0103ZM78.7338 22.6548L68.5884 22.5891C68.376 22.5891 68.1681 22.611 67.9646 22.6548C67.4747 22.7687 67.0479 23.0314 66.6841 23.4428C66.115 23.99 65.8633 24.6576 65.9289 25.4456L68.3586 56.0131H69.0809L78.7338 22.6548ZM15.9571 30.0094V26.6604H6.96082L6.66532 32.0122C6.66532 33.0654 6.5121 34.1708 6.20566 35.3283H7.32198C13.0787 35.3283 15.9571 33.5553 15.9571 30.0094ZM232.721 48.0019H230.718C229.383 48.0019 228.715 48.4506 228.715 49.348V51.3508C228.715 52.2264 229.383 52.6642 230.718 52.6642H232.721L233.377 52.0075H235.906L235.774 48.6585H233.377L232.721 48.0019ZM235.38 37.3311C234.448 36.3993 233.343 35.5128 232.064 34.6717H222.739L226.745 42.6829L232.064 41.3368H235.511L235.38 37.3311Z" fill="#F2A649"/>
<path d="M238.696 59.3293L240.699 58.6726L239.353 36.6745C238.039 31.3337 231.177 27.1091 218.766 24.0009C204.583 20.455 193.945 18.682 186.853 18.682C171.771 9.7733 161.79 4.43246 156.909 2.65948L141.642 0H65.8302C56.9653 0 43.449 4.89213 25.2814 14.6764L3.34897 15.9897L2.65948 32.0122C2.65948 34.223 2.00282 35.9959 0.689495 37.3312L0 38.0206V52.6642L1.34616 53.3537C1.82813 53.8357 2.71462 54.4485 4.00563 55.1923V55.2251L11.4916 58.6726C15.3765 60.0078 18.8677 60.6754 21.9653 60.6754H26.5947C27.9638 63.1222 29.7477 65.2454 31.9465 67.045C34.1637 68.8421 37.053 69.7943 40.6145 69.9015C44.1783 70.0115 47.2755 69.1797 49.9062 67.4062C52.5564 65.6313 54.3185 63.3877 55.1923 60.6754H190.169C191.504 63.3459 193.277 65.4143 195.488 66.8809C198.596 68.9603 201.693 70 204.78 70C207.888 70 210.996 68.8946 214.104 66.6839C216.315 65.3487 218.088 63.3459 219.423 60.6754H224.742C229.623 60.6754 234.275 60.2267 238.696 59.3293ZM235.511 41.3368L235.774 48.6585L235.905 52.0075L236.037 55.3565C234.264 55.7943 230.499 56.0131 224.742 56.0131H223.396V52.6642C223.396 47.3452 221.623 42.9018 218.077 39.334C214.531 35.788 210.099 34.015 204.78 34.015C199.461 34.015 195.028 35.788 191.482 39.334C187.936 42.9018 186.163 47.3452 186.163 52.6642V56.0131H92.2608L102.078 22.6548H166.234V21.9981C166.234 20.6629 167.12 18.6601 168.893 15.9897C157.358 9.7733 146.939 6.66511 137.636 6.66511H69.1463C62.5141 6.66511 52.7627 11.3383 39.8921 20.6848C42.5625 21.9981 47.8815 22.6548 55.849 22.6548H67.9644C68.1679 22.611 68.3758 22.5891 68.5882 22.5891L78.7336 22.6548H82.1482L72.4953 56.0131H69.0807H68.3584H65.0094V56.0788H59.8546V52.6642C59.8546 49.8069 59.2745 47.2022 58.1144 44.8499C57.473 43.5156 56.6412 42.257 55.6191 41.0741C55.0887 40.4779 54.5086 39.8979 53.879 39.334C53.215 38.67 52.5145 38.068 51.7777 37.5282C48.6366 35.1861 44.9045 34.015 40.5816 34.015C35.2627 34.015 30.8302 35.788 27.2842 39.334C23.7383 42.9018 21.9653 47.3452 21.9653 52.6642V55.9803C17.2071 55.8439 11.4394 54.0709 4.66229 50.6614V39.334C5.36136 37.9357 5.87574 36.6005 6.20544 35.3283C6.51188 34.1708 6.6651 33.0654 6.6651 32.0122L6.9606 26.6604L7.32176 20.6848L25.2814 19.3386L27.2842 18.682C44.5544 9.33552 57.4031 4.66229 65.8302 4.66229H141.642C147.836 5.55973 152.488 6.44622 155.596 7.32177C160.915 8.65698 170.666 13.768 184.85 22.6548H186.163L217.42 28.6632C223.633 30.3092 228.514 32.312 232.064 34.6717C233.343 35.5129 234.448 36.3993 235.38 37.3312L235.511 41.3368ZM204.78 64.6811C201.693 64.6811 198.979 63.6195 196.637 61.4963C194.536 59.6138 193.485 57.1185 193.485 54.0103C193.485 46.4587 197.25 42.6829 204.78 42.6829C212.331 42.6829 216.107 46.4587 216.107 54.0103C216.107 57.1185 215.045 59.6248 212.922 61.5291C210.602 63.6304 207.888 64.6811 204.78 64.6811ZM40.5816 42.6829C48.1113 42.6829 51.8762 46.4587 51.8762 54.0103C51.8762 61.1242 48.1113 64.6811 40.5816 64.6811C33.4897 64.6811 29.9437 61.1242 29.9437 54.0103C29.9437 46.4587 33.4897 42.6829 40.5816 42.6829ZM131.726 32.0122V28.6632H121.778V32.0122H131.726ZM148.274 32.0122V28.6632H138.293V32.0122H148.274ZM172.866 17.3358C171.99 16.8981 171.027 17.106 169.977 17.9597C168.816 18.879 168.236 20.2251 168.236 21.9981C168.231 22.8528 168.45 23.5204 168.893 24.0009C169.647 24.4349 170.314 24.6538 170.896 24.6576H172.406L174.212 26.6604H175.525C176.282 25.9226 176.402 25.1784 175.887 24.4278L177.528 23.3443V21.3415C176.193 19.1088 174.639 17.7736 172.866 17.3358Z" fill="#BF2A61"/>
<path d="M51.876 54.0103C51.876 46.4587 48.1111 42.6829 40.5814 42.6829C33.4895 42.6829 29.9435 46.4587 29.9435 54.0103C29.9435 61.1242 33.4895 64.6811 40.5814 64.6811C48.1111 64.6811 51.876 61.1242 51.876 54.0103ZM44.5542 54.0103C44.5542 56.6807 43.23 58.0159 40.5814 58.0159C37.911 58.0159 36.5758 56.6807 36.5758 54.0103C36.5758 50.9021 37.911 49.348 40.5814 49.348C43.23 49.348 44.5542 50.9021 44.5542 54.0103ZM196.637 61.4963C198.979 63.6195 201.693 64.6811 204.779 64.6811C207.888 64.6811 210.602 63.6304 212.922 61.5291C215.045 59.6248 216.107 57.1185 216.107 54.0103C216.107 46.4587 212.331 42.6829 204.779 42.6829C197.25 42.6829 193.485 46.4587 193.485 54.0103C193.485 57.1185 194.535 59.6138 196.637 61.4963ZM204.779 58.0159C202.131 58.0159 200.807 56.6807 200.807 54.0103C200.807 50.9021 202.131 49.348 204.779 49.348C207.45 49.348 208.785 50.9021 208.785 54.0103C208.785 56.6807 207.45 58.0159 204.779 58.0159ZM235.774 48.6585L235.511 41.3368H232.064L226.745 42.6829L222.739 34.6717H232.064C228.514 32.312 223.633 30.3092 217.42 28.6632L186.163 22.6548H184.85C170.666 13.768 160.914 8.65698 155.596 7.32177C152.487 6.44622 147.836 5.55973 141.641 4.66229H65.83C57.4029 4.66229 44.5542 9.33552 27.2841 18.682L25.2812 19.3386L7.32159 20.6848L6.96042 26.6604H15.9567V30.0094C15.9567 33.5553 13.0783 35.3283 7.32159 35.3283H6.20526C5.87556 36.6005 5.36118 37.9357 4.66211 39.334V50.6614C11.4392 54.0709 17.2069 55.8438 21.9651 55.9803V52.6642C21.9651 47.3452 23.7381 42.9018 27.2841 39.334C30.83 35.788 35.2625 34.015 40.5814 34.015C44.9044 34.015 48.6364 35.1861 51.7775 37.5281L51.3835 31.2242C51.3397 30.5019 51.5914 29.8562 52.1387 29.2871C52.6421 28.7398 53.255 28.4662 53.9773 28.4662H58.4098L55.619 41.0741C56.6411 42.257 57.4728 43.5156 58.1143 44.8499L62.5796 25.0188L65.0092 56.0131H68.3582L65.9285 25.4456C65.8629 24.6576 66.1146 23.99 66.6837 23.4428C67.0475 23.0314 67.4743 22.7688 67.9642 22.6548H55.8488C47.8813 22.6548 42.5624 21.9981 39.8919 20.6848C52.7625 11.3383 62.5139 6.66511 69.1462 6.66511H137.636C146.939 6.66511 157.358 9.7733 168.893 15.9897C167.12 18.6601 166.233 20.6629 166.233 21.9981V22.6548H102.078L92.2606 56.0131H186.163V52.6642C186.163 47.3452 187.936 42.9018 191.482 39.334C195.028 35.788 199.46 34.015 204.779 34.015C210.098 34.015 214.531 35.788 218.077 39.334C221.623 42.9018 223.396 47.3452 223.396 52.6642V56.0131H224.742C230.499 56.0131 234.263 55.7943 236.036 55.3565L235.905 52.0075H233.377L232.72 52.6642H230.717C229.382 52.6642 228.715 52.2264 228.715 51.3508V49.348C228.715 48.4506 229.382 48.0019 230.717 48.0019H232.72L233.377 48.6585H235.774ZM169.976 17.9597C171.027 17.106 171.99 16.8981 172.866 17.3358C174.639 17.7736 176.193 19.1088 177.528 21.3415V23.3443L175.886 24.4278C176.402 25.1784 176.281 25.9226 175.525 26.6604H174.212L172.406 24.6576H170.896C170.314 24.6538 169.647 24.4349 168.893 24.0009C168.45 23.5204 168.231 22.8528 168.236 21.9981C168.236 20.2251 168.816 18.879 169.976 17.9597ZM148.274 28.6632V32.0122H138.293V28.6632H148.274ZM131.726 28.6632V32.0122H121.778V28.6632H131.726Z" fill="white"/>
<path d="M59.8544 52.6641V56.0788H65.0092V56.0131L62.5796 25.0187L58.1143 44.8499C59.2744 47.2021 59.8544 49.8069 59.8544 52.6641Z" fill="#F23D5E"/>
<path d="M53.9776 28.4662C53.2553 28.4662 52.6424 28.7398 52.1389 29.287C51.5917 29.8561 51.34 30.5018 51.3838 31.2242L51.7778 37.5281C52.5146 38.068 53.2151 38.6699 53.8791 39.3339C54.5087 39.8978 55.0888 40.4779 55.6192 41.0741L58.41 28.4662H53.9776Z" fill="#A6325C"/>
</svg>
