<svg width="101" height="70" viewBox="0 0 101 70" fill="none" xmlns="http://www.w3.org/2000/svg">
<path d="M99.2845 13.988L87.6128 8.21229H87.5827C76.7304 2.83535 65.2492 0.097922 53.1392 0H48.0855C35.4945 0.0978437 23.7726 2.83527 12.9201 8.21229H12.89L1.21831 13.988C0.716946 14.2687 0.365993 14.6598 0.165449 15.1611C-0.0551497 15.7026 -0.0551497 16.2341 0.165449 16.7555C6.18178 32.8993 8.41784 47.4187 6.87365 60.3137C6.83354 60.8552 6.95387 61.3265 7.23464 61.7275C7.49534 62.1687 7.87638 62.4696 8.37774 62.63L29.0438 69.7593C29.4048 69.9198 29.8059 70 30.2471 70H70.2557C70.6969 70 71.098 69.9198 71.459 69.7593L92.1251 62.63C92.6264 62.4696 93.0074 62.1687 93.2682 61.7275C93.5489 61.3265 93.6692 60.8552 93.6291 60.3137C92.0849 47.4187 94.321 32.8993 100.337 16.7555C100.558 16.2341 100.558 15.7026 100.337 15.1611C100.137 14.6598 99.7858 14.2687 99.2845 13.988ZM87.4022 13.0855L94.0804 16.3644C94.7823 16.7254 94.9828 17.4073 94.682 18.41L88.9063 39.2265C88.6657 40.0086 88.2345 40.3997 87.6128 40.3997H12.89C12.2683 40.3997 11.8371 40.0086 11.5965 39.2265L5.8208 18.41C5.51998 17.4073 5.72052 16.7254 6.42243 16.3644L13.1006 13.0855C23.9525 7.8282 35.4938 5.17099 47.7245 5.11388H53.1392C65.1294 5.17107 76.5504 7.82828 87.4022 13.0855ZM89.2673 46.8973V57.486C89.2673 58.0877 89.1169 58.569 88.8161 58.93C88.5353 59.2107 88.1844 59.4313 87.7632 59.5917L70.9777 65.1869C70.4362 65.3474 69.8646 65.4276 69.263 65.4276H31.2398C30.6382 65.4276 30.0666 65.3474 29.5251 65.1869L12.7396 59.5917C12.3184 59.4313 11.9675 59.2107 11.6867 58.93C11.3859 58.569 11.2355 58.0877 11.2355 57.486V46.8973C11.2355 45.9146 11.6366 45.3531 12.4388 45.2127H88.064C88.8662 45.3531 89.2673 45.9146 89.2673 46.8973ZM63.0361 14.4091C63.1965 14.0882 63.1965 13.7674 63.0361 13.4465C62.7152 13.1256 62.3944 12.9652 62.0735 12.9652H54.6132C54.2924 12.9652 53.9715 13.0454 53.6506 13.2058C53.4902 13.3663 53.3298 13.6069 53.1693 13.9278L47.8749 32.2174C47.7145 32.5383 47.7947 32.8592 48.1156 33.1801C48.276 33.5009 48.5167 33.6614 48.8376 33.6614H56.5385C56.6989 33.6614 56.9395 33.5811 57.2604 33.4207C57.4209 33.2603 57.5813 33.0196 57.7417 32.6988L63.0361 14.4091Z" fill="#BF2A61"/>
<path d="M89.2674 57.486V46.8973C89.2674 45.9146 88.8663 45.3531 88.0642 45.2127H12.4389C11.6367 45.3531 11.2356 45.9146 11.2356 46.8973V57.486C11.2356 58.0877 11.386 58.569 11.6868 58.93C11.9676 59.2107 12.3186 59.4313 12.7397 59.5917L29.5253 65.1869C30.0667 65.3474 30.6383 65.4276 31.2399 65.4276H69.2631C69.8648 65.4276 70.4363 65.3474 70.9778 65.1869L87.7633 59.5917C88.1845 59.4313 88.5354 59.2107 88.8162 58.93C89.117 58.569 89.2674 58.0877 89.2674 57.486ZM94.0805 16.3644L87.4024 13.0855C76.5506 7.82829 65.1295 5.17108 53.1393 5.11389H47.7246C35.494 5.171 23.9526 7.82821 13.1007 13.0855L6.42255 16.3644C5.72064 16.7254 5.5201 17.4073 5.82091 18.41L11.5966 39.2265C11.8372 40.0086 12.2684 40.3997 12.8901 40.3997H87.6129C88.2346 40.3997 88.6658 40.0086 88.9064 39.2265L94.6821 18.41C94.9829 17.4073 94.7824 16.7254 94.0805 16.3644ZM63.0362 13.4465C63.1967 13.7674 63.1967 14.0882 63.0362 14.4091L57.7419 32.6988C57.5814 33.0196 57.421 33.2603 57.2605 33.4207C56.9397 33.5812 56.699 33.6614 56.5386 33.6614H48.8377C48.5168 33.6614 48.2762 33.5009 48.1157 33.1801C47.7949 32.8592 47.7146 32.5383 47.8751 32.2175L53.1694 13.9278C53.3299 13.6069 53.4903 13.3663 53.6507 13.2059C53.9716 13.0454 54.2925 12.9652 54.6134 12.9652H62.0736C62.3945 12.9652 62.7153 13.1256 63.0362 13.4465ZM44.7466 16.0937C44.7466 15.7728 44.907 15.4519 45.2279 15.1311C45.3883 14.8102 45.7092 14.6498 46.1905 14.6498H51.2442L45.9498 32.4581L44.7466 16.0937ZM40.6555 31.4955C40.495 31.4955 40.4148 31.4153 40.4148 31.2548C40.2544 31.2548 40.1742 31.1746 40.1742 31.0142C39.8533 30.8538 39.7731 30.5329 39.9335 30.0516L43.062 15.853L44.2653 31.4955H40.6555ZM40.8961 17.5376L38.0083 30.2922L37.2863 18.9815C37.2863 18.6607 37.4468 18.3398 37.7676 18.0189C38.0885 17.698 38.4094 17.5376 38.7302 17.5376H40.8961Z" fill="white"/>
<path d="M38.0081 30.2922L40.8959 17.5376H38.7301C38.4092 17.5376 38.0883 17.698 37.7674 18.0189C37.4466 18.3398 37.2861 18.6607 37.2861 18.9815L38.0081 30.2922Z" fill="#A6325C"/>
<path d="M40.4141 31.2548C40.4141 31.4153 40.4943 31.4955 40.6547 31.4955H44.2645L43.0612 15.853L39.9328 30.0516C39.7723 30.5329 39.8525 30.8537 40.1734 31.0142C40.1734 31.1746 40.2536 31.2548 40.4141 31.2548Z" fill="#F23D5E"/>
<path d="M45.2274 15.1311C44.9065 15.452 44.7461 15.7728 44.7461 16.0937L45.9494 32.4581L51.2437 14.6498H46.19C45.7087 14.6498 45.3878 14.8102 45.2274 15.1311Z" fill="#F2A649"/>
</svg>
