<svg width="200" height="70" viewBox="0 0 200 70" fill="none" xmlns="http://www.w3.org/2000/svg">
<path d="M174.138 65.1724C175.517 64.023 176.667 62.6437 177.586 61.0345H182.759C188.736 61.0345 193.678 60.4598 197.586 59.3103H199.655L198.276 36.8965C196.897 32.069 189.77 27.8161 176.897 24.1379C163.333 20.4598 152.759 18.6207 145.172 18.6207C129.77 9.65517 119.425 4.36781 114.138 2.75862L99.3104 0H73.7931C55.1724 0 34.4828 5.40229 11.7241 16.2069L2.75863 17.2414L2.06897 31.3793L0.689658 37.5862L0 38.2759V53.1035L1.37932 53.7931C1.37932 54.023 2.06897 54.5977 3.44828 55.5173V59.3103H12.069C15.5172 60.4598 18.9655 61.0345 22.4138 61.0345H26.8966C27.5862 62.4138 28.6207 63.7931 30 65.1724C32.9885 68.3908 36.7816 70 41.3793 70C45.7471 70 49.5402 68.3908 52.7586 65.1724C54.138 64.023 55.2874 62.6437 56.2069 61.0345H148.276C148.966 62.4138 149.885 63.7931 151.035 65.1724C154.253 68.3908 158.161 70 162.759 70C167.126 70 170.92 68.3908 174.138 65.1724ZM192.414 34.8276C193.51 37.0204 193.97 39.3192 193.793 41.7241L194.138 48.9655V51.7242V54.4828L194.828 55.8621L182.069 56.5517V53.1035C182.069 48.046 180.115 43.5632 176.207 39.6552C172.069 35.5173 167.586 33.4483 162.759 33.4483C157.701 33.4483 153.218 35.5173 149.31 39.6552C145.632 43.3333 143.793 47.8161 143.793 53.1035V56.5517H93.7931L101.035 31.3793H95.5173V28.9655H101.724L103.448 22.7586H124.138L123.448 22.069C124.368 18.8506 125.287 16.8965 126.207 16.2069C115.402 9.77011 105.057 6.55172 95.1724 6.55172H70.3448C60 6.55172 48.046 10.3448 34.4828 17.931C40.4598 21.1494 47.931 22.7586 56.8966 22.7586H60.6897H64.4828H77.9311H81.3793L72.069 56.5517H67.9311H67.2414H63.4483H60.6897V53.1035C60.6897 48.7356 59.3104 44.9425 56.5517 41.7241C56.092 41.0345 55.5173 40.3448 54.8276 39.6552C54.3678 39.1954 53.9081 38.8506 53.4483 38.6207C52.069 37.2414 50.5747 36.2069 48.9655 35.5172C46.4368 34.1379 43.9081 33.4483 41.3793 33.4483C36.3218 33.4483 31.8391 35.5173 27.931 39.6552C24.2529 43.3333 22.4138 47.8161 22.4138 53.1035V56.5517C15.977 56.3219 10.1149 54.2529 4.82759 50.3448V38.9655C5.51725 37.8161 5.97702 36.6667 6.20691 35.5172L7.24139 26.8966L7.58621 21.3793L13.1035 20C34.9425 9.65517 55.1724 4.48276 73.7931 4.48276H98.6207C103.908 4.48276 108.621 5.17241 112.759 6.55172C118.506 8.3908 128.621 13.7931 143.103 22.7586H143.793L175.517 28.2759C184.253 30.3448 189.885 32.5287 192.414 34.8276ZM155.172 45.5172C157.012 43.4483 159.54 42.4138 162.759 42.4138C170.345 42.4138 174.138 46.2069 174.138 53.7931C174.138 61.3793 170.345 65.1724 162.759 65.1724C159.54 65.1724 157.012 64.023 155.172 61.7242C152.874 59.6552 151.724 57.0115 151.724 53.7931C151.724 50.5747 152.874 47.8161 155.172 45.5172ZM49.6552 45.8621C50.3448 46.5517 50.9196 47.3563 51.3793 48.2759C52.2989 49.8851 52.7586 51.7241 52.7586 53.7931C52.7586 57.0115 51.6092 59.6552 49.3104 61.7242C47.0115 64.023 44.3678 65.1724 41.3793 65.1724C38.1609 65.1724 35.4023 64.023 33.1035 61.7242C31.0345 59.6552 30 57.0115 30 53.7931C30 50.5747 31.0345 47.8161 33.1035 45.5172C35.4023 43.4483 38.1609 42.4138 41.3793 42.4138C44.3678 42.4138 47.0115 43.4483 49.3104 45.5172L49.6552 45.8621ZM134.828 20.6897C134.138 19.3104 132.644 18.046 130.345 16.8965L128.276 17.2414C126.897 18.6207 126.207 20.2299 126.207 22.069L126.897 23.4483L128.276 24.1379H129.655L131.035 26.2069L132.414 26.8966L133.103 26.2069L133.793 24.1379C134.483 24.1379 134.828 23.908 134.828 23.4483C135.747 22.5287 135.747 21.6092 134.828 20.6897Z" fill="#BF2A61"/>
<path d="M51.3789 48.2758C50.9191 47.3562 50.3444 46.5516 49.6547 45.862L49.3099 45.5171C47.0111 43.4482 44.3674 42.4137 41.3789 42.4137C38.1605 42.4137 35.4019 43.4482 33.103 45.5171C31.034 47.816 29.9996 50.5746 29.9996 53.793C29.9996 57.0114 31.034 59.6551 33.103 61.7241C35.4019 64.0229 38.1605 65.1723 41.3789 65.1723C44.3674 65.1723 47.0111 64.0229 49.3099 61.7241C51.6088 59.6551 52.7582 57.0114 52.7582 53.793C52.7582 51.7241 52.2984 49.885 51.3789 48.2758ZM41.3789 49.6551C43.9076 49.6551 45.172 51.0344 45.172 53.793C45.172 56.5516 43.9076 57.9309 41.3789 57.9309C38.6203 57.9309 37.241 56.5516 37.241 53.793C37.241 51.0344 38.6203 49.6551 41.3789 49.6551ZM162.758 42.4137C159.54 42.4137 157.011 43.4482 155.172 45.5171C152.873 47.816 151.724 50.5746 151.724 53.793C151.724 57.0114 152.873 59.6551 155.172 61.7241C157.011 64.0229 159.54 65.1723 162.758 65.1723C170.344 65.1723 174.138 61.3792 174.138 53.793C174.138 46.2068 170.344 42.4137 162.758 42.4137ZM158.62 53.793C158.62 51.0344 160 49.6551 162.758 49.6551C165.287 49.6551 166.551 51.0344 166.551 53.793C166.551 56.5516 165.287 57.9309 162.758 57.9309C160 57.9309 158.62 56.5516 158.62 53.793ZM64.4823 22.7585H60.6892L63.4478 56.5517H67.2409L64.4823 22.7585ZM81.3789 22.7585H77.9306L67.9306 56.5517H72.0685L81.3789 22.7585ZM193.793 41.724H190.344L185.517 42.4137L180.689 34.8275H192.413C189.885 32.5286 184.252 30.3447 175.517 28.2758L143.793 22.7585H143.103C128.62 13.793 118.505 8.39071 112.758 6.55163C108.62 5.17232 103.908 4.48267 98.6203 4.48267H73.7927C55.172 4.48267 34.9421 9.65508 13.103 19.9999L7.58577 21.3792L7.24094 26.8965H16.2065V29.6551C16.2065 31.2643 15.172 32.5286 13.103 33.4482C11.2639 34.8275 9.42485 35.5172 7.58577 35.5172H6.20646C5.97658 36.6666 5.5168 37.816 4.82715 38.9654V50.3447C10.1145 54.2528 15.9766 56.3218 22.4134 56.5517V53.1034C22.4134 47.816 24.2524 43.3333 27.9306 39.6551C31.8386 35.5172 36.3214 33.4482 41.3789 33.4482C43.9076 33.4482 46.4363 34.1378 48.9651 35.5172L48.6203 29.3103C48.3904 28.3907 48.6203 27.5861 49.3099 26.8965C49.9996 26.4367 50.6892 26.2068 51.3789 26.2068H56.2065L55.5168 28.9654H49.3099V31.3792H55.172L53.4478 38.6206C53.9076 38.8505 54.3674 39.1953 54.8272 39.6551C55.5168 40.3447 56.0915 41.0344 56.5513 41.724L60.6892 22.7585H56.8961C47.9306 22.7585 40.4593 21.1493 34.4823 17.9309C48.0455 10.3447 59.9996 6.55163 70.3444 6.55163H95.172C105.057 6.55163 115.402 9.77002 126.206 16.2068C125.287 16.8965 124.367 18.8505 123.448 22.0689L124.138 22.7585H103.448L101.724 28.9654H95.5168V31.3792H101.034L93.7927 56.5517H143.793V53.1034C143.793 47.816 145.632 43.3333 149.31 39.6551C153.218 35.5172 157.701 33.4482 162.758 33.4482C167.586 33.4482 172.069 35.5172 176.206 39.6551C180.115 43.5631 182.069 48.0459 182.069 53.1034V56.5517L194.827 55.862L194.138 54.4827V51.7241H193.103C192.873 52.6436 192.183 53.1034 191.034 53.1034H188.965C188.046 53.1034 187.586 52.4137 187.586 51.0344V49.6551C187.531 48.5078 187.991 47.8181 188.965 47.5861H191.034C192.183 47.5861 192.873 48.0459 193.103 48.9654H194.138L193.793 41.724ZM130.344 16.8965C132.643 18.0459 134.137 19.3103 134.827 20.6896C135.747 21.6091 135.747 22.5286 134.827 23.4482C134.827 23.908 134.482 24.1378 133.793 24.1378L133.103 26.2068L132.413 26.8965L131.034 26.2068L129.655 24.1378H128.275L126.896 23.4482L126.206 22.0689C126.206 20.2298 126.896 18.6206 128.275 17.2413L130.344 16.8965Z" fill="white"/>
<path d="M45.1726 53.7932C45.1726 51.0345 43.9082 49.6552 41.3794 49.6552C38.6208 49.6552 37.2415 51.0345 37.2415 53.7932C37.2415 56.5518 38.6208 57.9311 41.3794 57.9311C43.9082 57.9311 45.1726 56.5518 45.1726 53.7932ZM162.759 49.6552C160 49.6552 158.621 51.0345 158.621 53.7932C158.621 56.5518 160 57.9311 162.759 57.9311C165.288 57.9311 166.552 56.5518 166.552 53.7932C166.552 51.0345 165.288 49.6552 162.759 49.6552ZM77.9312 22.7587H64.4829L67.2415 56.5518H67.9312L77.9312 22.7587ZM13.1036 33.4483C15.1725 32.5288 16.207 31.2644 16.207 29.6552V26.8966H7.24151L6.20703 35.5173H7.58633C9.42541 35.5173 11.2645 34.8276 13.1036 33.4483ZM188.966 47.5862C187.991 47.8183 187.531 48.5079 187.586 49.6552V51.0345C187.586 52.4138 188.046 53.1035 188.966 53.1035H191.035C192.184 53.1035 192.874 52.6437 193.104 51.7242H194.138V48.9656H193.104C192.874 48.046 192.184 47.5862 191.035 47.5862H188.966ZM193.793 41.7242C193.97 39.3193 193.51 37.0204 192.414 34.8276H180.69L185.517 42.4138L190.345 41.7242H193.793Z" fill="#F2A649"/>
<path d="M60.6897 56.5518H63.4483L60.6897 22.7587L56.5518 41.7242C59.3104 44.9426 60.6897 48.7357 60.6897 53.1035V56.5518Z" fill="#F23D5E"/>
<path d="M51.379 26.207C50.6893 26.207 49.9997 26.4369 49.31 26.8967C48.6204 27.5863 48.3905 28.3909 48.6204 29.3105L48.9652 35.5174C50.5744 36.207 52.0687 37.2415 53.448 38.6208L55.1721 31.3794H49.31V28.9657H55.5169L56.2066 26.207H51.379Z" fill="#A6325C"/>
</svg>
