<svg width="130" height="70" viewBox="0 0 130 70" fill="none" xmlns="http://www.w3.org/2000/svg">
<path d="M127.287 41.3567C127.198 40.6057 126.547 39.776 125.334 38.8676C123.737 37.6866 121.171 36.3719 117.637 34.9234C111.204 32.4726 107.578 31.0941 106.762 30.7877C103.392 28.5412 99.7155 25.4267 95.7331 21.4442L88.0744 15.1641L87.7681 14.7046H41.0503V13.9387H41.5099C42.3268 13.9387 43.45 13.9387 44.8797 13.9387C46.0029 13.9387 46.973 13.9387 47.7899 13.9387C48.9132 13.9387 49.8833 13.4792 50.7002 12.5602C51.8235 11.7432 52.3851 10.7732 52.3851 9.64989C52.3851 8.83297 52.3851 8.01604 52.3851 7.19912C52.3851 6.28008 52.3851 5.56528 52.3851 5.0547C52.3851 3.62509 51.9767 2.34865 51.1597 1.22538C50.6492 0.919036 50.0875 0.663748 49.4748 0.459517C48.9643 0.153172 48.2495 0 47.3304 0C39.4675 0 31.6047 0 23.7418 0C22.9249 0 22.2611 0.153172 21.7505 0.459517C21.1379 0.663748 20.5762 0.919036 20.0656 1.22538C19.1466 2.34865 18.6871 3.62509 18.6871 5.0547C18.6871 5.56528 18.6871 6.12691 18.6871 6.7396C18.6871 7.25018 18.6871 7.96499 18.6871 8.88403C18.6871 9.08826 18.6871 9.34354 18.6871 9.64989C18.9934 11.0795 19.5551 12.0496 20.372 12.5602C21.291 13.4792 22.4143 13.9387 23.7418 13.9387H25.4267V14.7046H2.91028L0.919038 46.7177L0.459517 48.0963L0 48.4026V57.7462L2.14442 60.3501C3.88038 61.984 6.12691 62.8009 8.88403 62.8009H15.6236C15.93 64.2305 16.798 65.6601 18.2276 67.0897C20.1678 69.0299 22.5164 70 25.2735 70C27.5201 70 29.9198 69.0299 32.4726 67.0897C33.9023 65.6601 34.7702 64.2305 35.0766 62.8009H96.1926L99.1029 67.0897C101.043 69.0299 103.443 70 106.302 70C108.549 70 110.948 69.0299 113.501 67.0897C115.135 64.8432 115.952 63.4136 115.952 62.8009H118.096V62.6477L126.521 62.3414C128.767 61.8308 129.891 60.4522 129.891 58.2057V53.6105C129.891 51.8745 129.329 50.5981 128.206 49.7812C128.206 46.7823 127.931 44.1018 127.382 41.7396C127.351 41.6134 127.319 41.4858 127.287 41.3567ZM125.353 47.2155C125.392 48.2556 125.373 49.3534 125.295 50.5088C125.296 50.5216 125.296 50.5343 125.295 50.5471L125.602 51.9256H126.521L127.287 53.6105V58.2057C127.287 59.0226 126.878 59.4311 126.061 59.4311H125.602C124.785 59.7374 122.538 59.8906 118.862 59.8906H118.096V59.4311C118.096 56.0613 116.973 53.2531 114.726 51.0066C111.867 48.76 109.059 47.6368 106.302 47.6368C102.932 47.6368 100.124 48.76 97.8775 51.0066C95.3246 53.2531 94.0482 56.0613 94.0482 59.4311V59.8906H41.9694L54.5295 17.7681H86.849L93.5886 23.5886C99.5113 28.8986 103.443 32.1152 105.383 33.2385H105.842C105.865 33.2468 105.885 33.2532 105.9 33.2577C106.736 33.5607 107.668 33.9117 108.695 34.3107C113.023 35.9254 118.065 37.9102 123.821 40.2653C124.835 40.8568 125.352 41.5652 125.372 42.3906C125.378 43.9623 125.372 45.5706 125.353 47.2155ZM106.302 66.1707C104.566 66.1707 103.136 65.609 102.013 64.4858C100.686 63.0562 100.022 61.5244 100.022 59.8906C100.022 55.9081 102.115 53.9168 106.302 53.9168C110.182 53.9168 112.123 55.9081 112.123 59.8906C112.123 64.0773 110.182 66.1707 106.302 66.1707ZM39.3654 1.6849H39.8249V1.22538C40.3355 1.22538 41.4588 1.22538 43.1948 1.22538L42.2757 2.91028C42.2757 3.21663 42.2757 3.52298 42.2757 3.82932C42.2757 4.03355 42.4289 4.13566 42.7352 4.13566C43.0416 4.44201 43.3479 4.3399 43.6543 3.82932C44.1648 2.91028 44.5733 2.19548 44.8797 1.6849H45.3392C45.3392 1.37855 45.4413 1.22538 45.6455 1.22538H47.3304C48.4537 1.22538 49.3217 1.53173 49.9344 2.14442C50.4449 2.96134 50.8534 3.77826 51.1597 4.59519C51.1597 6.0248 51.1597 7.55653 51.1597 9.19037C50.8534 10.1094 50.4449 10.8242 49.9344 11.3348C49.3217 11.9475 48.6069 12.2538 47.7899 12.2538C46.973 12.2538 46.1561 12.2538 45.3392 12.2538H44.8797C44.8797 11.9475 44.7265 11.488 44.4201 10.8753L43.6543 10.1094C43.6543 9.80306 43.5011 9.64989 43.1948 9.64989C42.8884 9.34354 42.7352 9.34354 42.7352 9.64989C42.4289 9.64989 42.2757 9.80306 42.2757 10.1094V10.5689L43.1948 12.2538C41.4588 12.2538 40.3355 12.2538 39.8249 12.2538H39.3654C38.8549 11.1306 38.5996 10.4158 38.5996 10.1094C38.2932 9.80306 37.9869 9.64989 37.6805 9.64989C37.6805 9.34354 37.5274 9.34354 37.221 9.64989C37.0168 9.64989 36.9147 9.80306 36.9147 10.1094V10.5689C36.9147 10.7732 37.3231 11.3348 38.14 12.2538C37.221 12.2538 36.4551 12.2538 35.8425 12.2538C35.7403 12.2538 35.6382 12.2538 35.5361 12.2538C35.0255 12.2538 34.6171 12.2538 34.3107 12.2538C33.8001 11.1306 33.3917 10.4158 33.0853 10.1094L32.6258 9.64989C32.3195 9.34354 32.0642 9.34354 31.86 9.64989C31.5536 9.64989 31.4004 9.80306 31.4004 10.1094C31.4004 10.4158 31.5536 10.671 31.86 10.8753L32.6258 12.2538C30.992 12.2538 29.8687 12.2538 29.256 12.2538H28.7965C28.2859 11.1306 27.8775 10.4158 27.5711 10.1094C27.5711 9.80306 27.4179 9.64989 27.1116 9.64989C26.9074 9.34354 26.8053 9.34354 26.8053 9.64989C26.4989 9.64989 26.3457 9.80306 26.3457 10.1094V10.5689L27.1116 12.2538C26.2947 12.2538 25.6309 12.2538 25.1204 12.2538C24.2013 12.2538 23.4865 12.2538 22.9759 12.2538C22.159 12.2538 21.4442 11.9475 20.8315 11.3348C20.3209 10.8242 20.0656 10.1094 20.0656 9.19037C20.0656 7.55653 20.0656 6.0248 20.0656 4.59519C20.0656 3.77826 20.4741 3.06346 21.291 2.45076C21.8016 1.94019 22.5164 1.53173 23.4355 1.22538C23.946 1.22538 24.6098 1.22538 25.4267 1.22538C25.733 1.22538 26.2947 1.22538 27.1116 1.22538L26.3457 2.91028C26.0394 3.52297 26.1926 3.93143 26.8053 4.13566H27.1116C27.4179 4.13566 27.5711 4.03355 27.5711 3.82932C28.1838 2.91028 28.5923 2.19548 28.7965 1.6849H29.256V1.22538C29.5624 1.22538 30.6856 1.22538 32.6258 1.22538L32.1663 2.45076C31.6557 3.06346 31.4004 3.52298 31.4004 3.82932L31.86 4.13566C32.0642 4.44201 32.3195 4.44201 32.6258 4.13566C32.9322 4.13566 33.2385 3.88037 33.5449 3.3698C33.7491 2.55288 34.0044 1.99125 34.3107 1.6849L34.7702 1.22538C35.0766 1.22538 36.1999 1.22538 38.14 1.22538L36.9147 2.91028C36.9147 3.52297 37.0168 3.93143 37.221 4.13566H37.6805C37.8848 4.13566 38.0379 4.13566 38.14 4.13566C38.14 4.03355 38.14 3.93144 38.14 3.82932C38.4464 3.52298 38.7017 3.21663 38.9059 2.91028C39.2123 2.3997 39.3654 1.99125 39.3654 1.6849ZM39.3654 13.9387V14.7046H26.8053V13.9387H39.3654ZM5.0547 27.1116C5.25893 21.3931 5.41211 18.2786 5.51422 17.7681H34.0044L25.2735 47.6368C23.946 47.6368 22.7206 47.841 21.5974 48.2495C20.372 48.5558 19.2487 49.0664 18.2276 49.7812C17.717 50.1896 17.2575 50.5981 16.849 51.0066C16.2363 51.7214 15.6747 52.4362 15.1641 53.151C14.6535 53.8658 14.2451 54.6317 13.9387 55.4486C13.4282 56.674 13.1729 58.0015 13.1729 59.4311V59.8906H9.34355C7.09701 59.8906 5.41211 59.329 4.28884 58.2057L2.91028 56.9803V52.3851V48.8621L3.3698 48.0963L4.28884 44.7265V43.9606C4.59519 36.9147 4.85047 31.2983 5.0547 27.1116ZM23.7418 54.07C24.2524 53.9679 24.7629 53.9168 25.2735 53.9168C29.256 53.9168 31.2473 55.9081 31.2473 59.8906C31.2473 64.0773 29.256 66.1707 25.2735 66.1707C23.6397 66.1707 22.2611 65.609 21.1379 64.4858C20.9336 64.2815 20.7805 64.0773 20.6783 63.8731C19.5551 62.6477 18.9934 61.3202 18.9934 59.8906C18.9934 56.6229 20.423 54.6827 23.2823 54.07C23.3844 54.07 23.5376 54.07 23.7418 54.07ZM47.1772 7.81181C47.2794 7.81181 47.3815 7.81181 47.4836 7.81181C47.6878 7.81181 47.7899 7.76076 47.7899 7.65864C47.8921 7.55653 47.9942 7.45441 48.0963 7.3523C48.1984 7.14807 48.2495 6.99489 48.2495 6.89278C48.2495 6.79066 48.1984 6.68855 48.0963 6.58643C47.8921 6.48432 47.7389 6.3822 47.6368 6.28009H23.895C23.7929 6.28009 23.6907 6.28009 23.5886 6.28009H23.4355C23.4355 6.3822 23.3333 6.48432 23.1291 6.58643C23.027 6.68855 22.9759 6.79066 22.9759 6.89278C22.9759 6.99489 22.9759 7.14807 22.9759 7.3523C23.078 7.45441 23.1802 7.55653 23.2823 7.65864C23.3844 7.76076 23.4865 7.81181 23.5886 7.81181H47.1772ZM71.2254 39.2123V37.5274H64.9453V39.2123H71.2254ZM75.0547 39.2123V40.8972H81.7943V39.2123H75.0547ZM100.022 32.9322C99.7156 32.6258 99.256 32.7279 98.6433 33.2385C97.8264 33.8512 97.418 35.434 97.418 37.9869L97.8775 38.7527L98.6433 39.2123H102.013C104.055 39.2123 103.392 37.1189 100.022 32.9322Z" fill="#BF2A61"/>
<path d="M25.2734 53.9168C24.7628 53.9168 24.2522 53.9679 23.7417 54.07C23.5374 54.07 23.3843 54.07 23.2821 54.07C20.4229 54.6827 18.9933 56.6229 18.9933 59.8906C18.9933 61.3202 19.5549 62.6477 20.6782 63.8731C20.7803 64.0773 20.9335 64.2815 21.1377 64.4858C22.261 65.609 23.6395 66.1707 25.2734 66.1707C29.2559 66.1707 31.2471 64.0773 31.2471 59.8906C31.2471 55.9081 29.2559 53.9168 25.2734 53.9168ZM25.2734 57.2867C27.0094 57.2867 27.8773 58.1546 27.8773 59.8906C27.8773 61.5244 27.0094 62.3414 25.2734 62.3414C23.6395 62.3414 22.8226 61.5244 22.8226 59.8906C22.8226 59.5842 22.8737 59.329 22.9758 59.1247C23.18 57.8993 23.9459 57.2867 25.2734 57.2867ZM16.2362 24.0481C16.1341 23.2312 16.3894 22.5675 17.0021 22.0569C17.5126 21.4442 18.1764 21.1379 18.9933 21.1379H29.4091L21.5972 48.2495C22.7205 47.841 23.9459 47.6368 25.2734 47.6368L34.0042 17.768H5.5141C5.41198 18.2786 5.25881 21.3931 5.05458 27.1116H8.42438L2.91016 52.3851V56.9803L4.28871 58.2057C5.41198 59.329 7.09688 59.8906 9.34342 59.8906H13.1727V59.4311C13.1727 58.0015 13.428 56.674 13.9386 55.4486H8.42438C8.32227 55.4486 8.22015 55.4486 8.11803 55.4486C8.01592 55.4486 7.86275 55.3975 7.65852 55.2954H7.50534C7.199 55.0912 6.94371 54.8869 6.73948 54.6827C6.2289 54.07 6.07573 53.3552 6.27996 52.5383L12.7132 23.5886L15.164 53.151C15.6746 52.4362 16.2362 51.7214 16.8489 51.0066C17.2573 50.5981 17.7169 50.1896 18.2274 49.7812L16.2362 24.0481ZM39.8248 1.6849H39.3653C39.3653 1.99124 39.2121 2.3997 38.9058 2.91028C38.7015 3.21662 38.4463 3.52297 38.1399 3.82932C38.1399 3.93144 38.1399 4.03355 38.1399 4.13566C38.0378 4.13566 37.8846 4.13566 37.6804 4.13566H37.2209C37.0167 3.93143 36.9145 3.52297 36.9145 2.91028L38.1399 1.22538C36.1997 1.22538 35.0765 1.22538 34.7701 1.22538L34.3106 1.6849C34.0042 1.99124 33.749 2.55287 33.5447 3.3698C33.2384 3.88037 32.932 4.13566 32.6257 4.13566C32.3194 4.44201 32.0641 4.44201 31.8598 4.13566L31.4003 3.82932C31.4003 3.52297 31.6556 3.06345 32.1662 2.45076L32.6257 1.22538C30.6855 1.22538 29.5622 1.22538 29.2559 1.22538V1.6849H28.7964C28.5921 2.19547 28.1837 2.91028 27.571 3.82932C27.571 4.03355 27.4178 4.13566 27.1115 4.13566H26.8051C26.1924 3.93143 26.0393 3.52297 26.3456 2.91028L27.1115 1.22538C26.2945 1.22538 25.7329 1.22538 25.4266 1.22538C24.6096 1.22538 23.9459 1.22538 23.4353 1.22538C22.5163 1.53173 21.8015 1.94019 21.2909 2.45076C20.474 3.06345 20.0655 3.77826 20.0655 4.59518C20.0655 6.0248 20.0655 7.55653 20.0655 9.19037C20.0655 10.1094 20.3208 10.8242 20.8314 11.3348C21.4441 11.9475 22.1589 12.2538 22.9758 12.2538C23.4864 12.2538 24.2012 12.2538 25.1202 12.2538C25.6308 12.2538 26.2945 12.2538 27.1115 12.2538L26.3456 10.5689V10.1094C26.3456 9.80306 26.4988 9.64989 26.8051 9.64989C26.8051 9.34354 26.9072 9.34354 27.1115 9.64989C27.4178 9.64989 27.571 9.80306 27.571 10.1094C27.8773 10.4158 28.2858 11.1306 28.7964 12.2538H29.2559C29.8686 12.2538 30.9919 12.2538 32.6257 12.2538L31.8598 10.8753C31.5535 10.671 31.4003 10.4158 31.4003 10.1094C31.4003 9.80306 31.5535 9.64989 31.8598 9.64989C32.0641 9.34354 32.3194 9.34354 32.6257 9.64989L33.0852 10.1094C33.3916 10.4158 33.8 11.1306 34.3106 12.2538C34.6169 12.2538 35.0254 12.2538 35.536 12.2538C35.6381 12.2538 35.7402 12.2538 35.8423 12.2538C36.455 12.2538 37.2209 12.2538 38.1399 12.2538C37.323 11.3348 36.9145 10.7732 36.9145 10.5689V10.1094C36.9145 9.80306 37.0167 9.64989 37.2209 9.64989C37.5272 9.34354 37.6804 9.34354 37.6804 9.64989C37.9867 9.64989 38.2931 9.80306 38.5994 10.1094C38.5994 10.4158 38.8547 11.1306 39.3653 12.2538H39.8248C40.3354 12.2538 41.4587 12.2538 43.1946 12.2538L42.2756 10.5689V10.1094C42.2756 9.80306 42.4288 9.64989 42.7351 9.64989C42.7351 9.34354 42.8883 9.34354 43.1946 9.64989C43.501 9.64989 43.6541 9.80306 43.6541 10.1094L44.42 10.8753C44.7263 11.488 44.8795 11.9475 44.8795 12.2538H45.339C46.156 12.2538 46.9729 12.2538 47.7898 12.2538C48.6067 12.2538 49.3215 11.9475 49.9342 11.3348C50.4448 10.8242 50.8533 10.1094 51.1596 9.19037C51.1596 7.55653 51.1596 6.0248 51.1596 4.59518C50.8533 3.77826 50.4448 2.96134 49.9342 2.14441C49.3215 1.53172 48.4536 1.22538 47.3303 1.22538H45.6454C45.4412 1.22538 45.339 1.37855 45.339 1.6849H44.8795C44.5732 2.19547 44.1647 2.91028 43.6541 3.82932C43.3478 4.3399 43.0415 4.44201 42.7351 4.13566C42.4288 4.13566 42.2756 4.03355 42.2756 3.82932C42.2756 3.52297 42.2756 3.21662 42.2756 2.91028L43.1946 1.22538C41.4587 1.22538 40.3354 1.22538 39.8248 1.22538V1.6849ZM47.4835 7.81181C47.3813 7.81181 47.2792 7.81181 47.1771 7.81181H23.5885C23.4864 7.81181 23.3843 7.76076 23.2821 7.65864C23.18 7.55653 23.0779 7.45441 22.9758 7.35229C22.9758 7.14806 22.9758 6.99489 22.9758 6.89278C22.9758 6.79066 23.0269 6.68855 23.129 6.58643C23.3332 6.48432 23.4353 6.3822 23.4353 6.28008H23.5885C23.6906 6.28008 23.7927 6.28008 23.8948 6.28008H47.6366C47.7388 6.3822 47.8919 6.48432 48.0962 6.58643C48.1983 6.68855 48.2493 6.79066 48.2493 6.89278C48.2493 6.99489 48.1983 7.14806 48.0962 7.35229C47.994 7.45441 47.8919 7.55653 47.7898 7.65864C47.7898 7.76076 47.6877 7.81181 47.4835 7.81181ZM102.013 64.4858C103.136 65.609 104.566 66.1707 106.302 66.1707C110.182 66.1707 112.122 64.0773 112.122 59.8906C112.122 55.9081 110.182 53.9168 106.302 53.9168C102.115 53.9168 100.022 55.9081 100.022 59.8906C100.022 61.5244 100.686 63.0562 102.013 64.4858ZM103.698 59.8906C103.698 58.1546 104.566 57.2867 106.302 57.2867C107.936 57.2867 108.753 58.1546 108.753 59.8906C108.753 61.5244 107.936 62.3414 106.302 62.3414C104.566 62.3414 103.698 61.5244 103.698 59.8906ZM125.295 50.5088C125.373 49.3534 125.392 48.2556 125.353 47.2155C125.339 46.8912 125.319 46.5721 125.295 46.2582C122.349 45.0204 119.789 43.2525 117.617 40.9546C116.621 39.8824 116.251 38.6761 116.507 37.3359C113.439 36.1662 110.835 35.1578 108.695 34.3107C107.668 33.9117 106.736 33.5607 105.9 33.2577C105.884 33.2532 105.865 33.2468 105.842 33.2385H105.383C103.443 32.1152 99.5112 28.8986 93.5885 23.5886L86.8489 17.768H54.5294L41.9692 59.8906H94.048V59.4311C94.048 56.0613 95.3245 53.2531 97.8773 51.0066C100.124 48.76 102.932 47.6368 106.302 47.6368C109.059 47.6368 111.867 48.76 114.726 51.0066C116.973 53.2531 118.096 56.0613 118.096 59.4311V59.8906H118.862C122.538 59.8906 124.785 59.7374 125.602 59.4311H126.061C126.878 59.4311 127.287 59.0226 127.287 58.2057V53.6105L126.521 51.9256H125.602L125.295 50.547C125.296 50.5343 125.296 50.5216 125.295 50.5088ZM99.5622 31.2473L97.8773 32.0131C96.7541 33.1364 96.1924 35.1276 96.1924 37.9869L96.6519 39.2122H94.048C91.4951 39.2122 87.819 38.4974 83.0196 37.0678L76.7395 34.6171V19.4529H85.164L86.8489 19.7593L99.5622 31.2473ZM98.6432 33.2385C99.2559 32.7279 99.7154 32.6258 100.022 32.9322C103.392 37.1189 104.055 39.2122 102.013 39.2122H98.6432L97.8773 38.7527L97.4178 37.9869C97.4178 35.434 97.8263 33.8512 98.6432 33.2385ZM71.6848 21.9037V32.0131C71.6848 33.7491 70.8679 34.6171 69.234 34.6171H63.5666L62.3412 34.1575L56.0611 30.7877C55.1421 30.4814 54.6826 29.6134 54.6826 28.1838V19.4529H69.234C70.8679 19.4529 71.6848 20.2699 71.6848 21.9037ZM75.0546 40.8972V39.2122H81.7942V40.8972H75.0546ZM71.2253 37.5274V39.2122H64.9452V37.5274H71.2253Z" fill="white"/>
<path d="M27.8779 59.8906C27.8779 58.1546 27.0099 57.2867 25.2739 57.2867C23.9464 57.2867 23.1806 57.8993 22.9763 59.1247C22.8742 59.329 22.8232 59.5842 22.8232 59.8906C22.8232 61.5244 23.6401 62.3414 25.2739 62.3414C27.0099 62.3414 27.8779 61.5244 27.8779 59.8906ZM17.0026 22.0569C16.3899 22.5675 16.1346 23.2312 16.2367 24.0481L18.228 49.7812C19.2491 49.0664 20.3724 48.5558 21.5978 48.2495L29.4096 21.1379H18.9938C18.1769 21.1379 17.5132 21.4442 17.0026 22.0569ZM106.302 57.2867C104.566 57.2867 103.698 58.1546 103.698 59.8906C103.698 61.5244 104.566 62.3414 106.302 62.3414C107.936 62.3414 108.753 61.5244 108.753 59.8906C108.753 58.1546 107.936 57.2867 106.302 57.2867ZM125.296 46.2582C125.32 46.5721 125.339 46.8912 125.353 47.2155C125.372 45.5706 125.378 43.9623 125.372 42.3906C125.352 41.5652 124.835 40.8568 123.822 40.2653C118.065 37.9102 113.023 35.9254 108.696 34.3107C110.835 35.1578 113.439 36.1662 116.508 37.3359C116.251 38.6761 116.621 39.8824 117.618 40.9546C119.79 43.2525 122.349 45.0204 125.296 46.2582ZM71.6853 32.0131V21.9037C71.6853 20.2699 70.8684 19.4529 69.2345 19.4529H54.6831V28.1838C54.6831 29.6134 55.1426 30.4814 56.0617 30.7877L62.3418 34.1575L63.5671 34.6171H69.2345C70.8684 34.6171 71.6853 33.7491 71.6853 32.0131ZM97.8779 32.0131L99.5628 31.2473L86.8494 19.7593L85.1645 19.4529H76.74V34.6171L83.0201 37.0678C87.8195 38.4974 91.4957 39.2123 94.0485 39.2123H96.6525L96.193 37.9869C96.193 35.1276 96.7546 33.1364 97.8779 32.0131Z" fill="#F2A649"/>
<path d="M12.7132 23.5886L6.27991 52.5383C6.07568 53.3552 6.22885 54.07 6.73943 54.6827C6.94366 54.8869 7.19895 55.0912 7.50529 55.2954H7.65847C7.8627 55.3975 8.01587 55.4486 8.11798 55.4486C8.2201 55.4486 8.32221 55.4486 8.42433 55.4486H13.9386C14.2449 54.6317 14.6534 53.8658 15.1639 53.151L12.7132 23.5886Z" fill="#F23D5E"/>
<path d="M8.42438 27.1116H5.05458C4.85035 31.2983 4.59506 36.9147 4.28871 43.9606V44.7265L3.36967 48.0963L2.91016 48.8622V52.3851L8.42438 27.1116Z" fill="#A6325C"/>
</svg>
